<?xml version="1.0" encoding="UTF-8" standalone="no"?>
<!-- Created with Inkscape (http://www.inkscape.org/) -->

<svg
   xmlns:dc="http://purl.org/dc/elements/1.1/"
   xmlns:cc="http://creativecommons.org/ns#"
   xmlns:rdf="http://www.w3.org/1999/02/22-rdf-syntax-ns#"
   xmlns:svg="http://www.w3.org/2000/svg"
   xmlns="http://www.w3.org/2000/svg"
   xmlns:xlink="http://www.w3.org/1999/xlink"
   xmlns:sodipodi="http://sodipodi.sourceforge.net/DTD/sodipodi-0.dtd"
   xmlns:inkscape="http://www.inkscape.org/namespaces/inkscape"
   width="2979.9211"
   height="4212.9922"
   id="svg2"
   version="1.1"
   inkscape:version="0.48.4 r9939"
   sodipodi:docname="AfficheTableauNoir-v3.svg">
  <defs
     id="defs4">
    <linearGradient
       gradientUnits="userSpaceOnUse"
       y2="939.96838"
       x2="651.95245"
       y1="601.22809"
       x1="651.95245"
       id="linearGradient4463"
       xlink:href="#linearGradient4457"
       inkscape:collect="always" />
    <linearGradient
       y2="921.46576"
       x2="483.21909"
       y1="916.24414"
       x1="483.21909"
       gradientUnits="userSpaceOnUse"
       id="linearGradient4445"
       xlink:href="#linearGradient4419"
       inkscape:collect="always" />
    <linearGradient
       y2="949.32135"
       x2="473.2312"
       y1="923.05005"
       x1="473.2312"
       gradientUnits="userSpaceOnUse"
       id="linearGradient4443"
       xlink:href="#linearGradient4447"
       inkscape:collect="always" />
    <linearGradient
       gradientUnits="userSpaceOnUse"
       y2="948.47229"
       x2="666.07141"
       y1="933.61218"
       x1="666.07141"
       id="linearGradient4397"
       xlink:href="#linearGradient4391"
       inkscape:collect="always" />
    <linearGradient
       gradientUnits="userSpaceOnUse"
       y2="640.422"
       x2="640.94177"
       y1="916.79974"
       x1="750.64435"
       id="linearGradient4379"
       xlink:href="#linearGradient4373"
       inkscape:collect="always" />
    <linearGradient
       id="linearGradient4373"
       inkscape:collect="always">
      <stop
         id="stop4375"
         offset="0"
         style="stop-color:#000000;stop-opacity:1" />
      <stop
         id="stop4377"
         offset="1"
         style="stop-color:#121212;stop-opacity:1" />
    </linearGradient>
    <linearGradient
       id="linearGradient4391"
       inkscape:collect="always">
      <stop
         id="stop4393"
         offset="0"
         style="stop-color:#803300;stop-opacity:1" />
      <stop
         id="stop4395"
         offset="1"
         style="stop-color:#552200;stop-opacity:1" />
    </linearGradient>
    <linearGradient
       id="linearGradient4419"
       inkscape:collect="always">
      <stop
         id="stop4421"
         offset="0"
         style="stop-color:#bb0b31;stop-opacity:1" />
      <stop
         id="stop4423"
         offset="1"
         style="stop-color:#66020f;stop-opacity:1" />
    </linearGradient>
    <linearGradient
       inkscape:collect="always"
       id="linearGradient4447">
      <stop
         style="stop-color:#2d2521;stop-opacity:1"
         offset="0"
         id="stop4449" />
      <stop
         id="stop4451"
         offset="0.50540966"
         style="stop-color:#434641;stop-opacity:1" />
      <stop
         id="stop4453"
         offset="0.77510178"
         style="stop-color:#41423e;stop-opacity:1" />
      <stop
         style="stop-color:#eaeaea;stop-opacity:1"
         offset="1"
         id="stop4455" />
    </linearGradient>
    <linearGradient
       id="linearGradient4457"
       inkscape:collect="always">
      <stop
         id="stop4459"
         offset="0"
         style="stop-color:#7d3200;stop-opacity:1" />
      <stop
         id="stop4461"
         offset="1"
         style="stop-color:#532100;stop-opacity:1" />
    </linearGradient>
    <linearGradient
       inkscape:collect="always"
       xlink:href="#linearGradient4391"
       id="linearGradient5620"
       gradientUnits="userSpaceOnUse"
       gradientTransform="matrix(0.79150648,0,0,0.79150648,359.52706,77.037853)"
       x1="666.07141"
       y1="933.61218"
       x2="666.07141"
       y2="948.47229" />
    <linearGradient
       inkscape:collect="always"
       xlink:href="#linearGradient4373"
       id="linearGradient5622"
       gradientUnits="userSpaceOnUse"
       gradientTransform="matrix(0.79150648,0,0,0.79150648,352.31285,24.546241)"
       x1="750.64435"
       y1="916.79974"
       x2="640.94177"
       y2="640.422" />
    <linearGradient
       inkscape:collect="always"
       xlink:href="#linearGradient4457"
       id="linearGradient5624"
       gradientUnits="userSpaceOnUse"
       gradientTransform="matrix(0.79150648,0,0,0.79150648,352.31285,24.546241)"
       x1="651.95245"
       y1="601.22809"
       x2="651.95245"
       y2="939.96838" />
  </defs>
  <sodipodi:namedview
     id="base"
     pagecolor="#ffffff"
     bordercolor="#666666"
     borderopacity="1.0"
     inkscape:pageopacity="0.0"
     inkscape:pageshadow="2"
     inkscape:zoom="0.125"
     inkscape:cx="2534.1467"
     inkscape:cy="3016.4588"
     inkscape:document-units="px"
     inkscape:current-layer="g4475"
     showgrid="false"
     inkscape:window-width="1221"
     inkscape:window-height="1008"
     inkscape:window-x="1275"
     inkscape:window-y="-10"
     inkscape:window-maximized="1"
     fit-margin-top="0"
     fit-margin-left="0"
     fit-margin-right="0"
     fit-margin-bottom="0" />
  <metadata
     id="metadata7">
    <rdf:RDF>
      <cc:Work
         rdf:about="">
        <dc:format>image/svg+xml</dc:format>
        <dc:type
           rdf:resource="http://purl.org/dc/dcmitype/StillImage" />
        <dc:title />
      </cc:Work>
    </rdf:RDF>
  </metadata>
  <g
     inkscape:label="Calque 1"
     inkscape:groupmode="layer"
     id="layer1"
     transform="translate(-421.39087,3674.0534)">
    <g
       id="g4475"
       transform="matrix(7.7624604,0,0,9.9063446,-5606.1801,-7910.6633)">
      <g
         id="g5626"
         inkscape:export-filename="/home/samuel/Documents/Associations/Gull/2015-Alternatiba/Affiches/AfficheTableauNoir.png"
         inkscape:export-xdpi="144.39999"
         inkscape:export-ydpi="144.39999"
         transform="matrix(1.2271604,0,0,1.2271604,-162.54451,-221.73679)">
        <g
           transform="matrix(1.1364007,0,0,1.1235685,-123.48317,-78.177035)"
           id="g5614">
          <path
             inkscape:connector-curvature="0"
             id="rect4387"
             d="m 798.81316,814.99397 c -3.73587,0 -6.85148,3.14035 -6.85148,6.87621 0,3.73587 3.11561,6.85148 6.85148,6.85148 l 243.19034,0 c 3.7359,0 6.8515,-3.11561 6.8515,-6.85148 0,-3.73586 -3.1156,-6.87621 -6.8515,-6.87621 l -243.19034,0 z"
             style="font-size:medium;font-style:normal;font-variant:normal;font-weight:normal;font-stretch:normal;text-indent:0;text-align:start;text-decoration:none;line-height:normal;letter-spacing:normal;word-spacing:normal;text-transform:none;direction:ltr;block-progression:tb;writing-mode:lr-tb;text-anchor:start;baseline-shift:baseline;color:#000000;fill:url(#linearGradient5620);fill-opacity:1;fill-rule:nonzero;stroke:none;stroke-width:9.33200836;marker:none;visibility:visible;display:inline;overflow:visible;enable-background:accumulate;font-family:Sans;-inkscape-font-specification:Sans" />
          <g
             id="g4649"
             transform="translate(7.2142075,52.491612)">
            <rect
               style="color:#000000;fill:url(#linearGradient5622);fill-opacity:1;stroke:none;stroke-width:10;marker:none;visibility:visible;display:inline;overflow:visible;enable-background:accumulate"
               id="rect4371"
               width="235.86497"
               height="258.25217"
               x="795.25928"
               y="505.69913" />
            <path
               style="font-size:medium;font-style:normal;font-variant:normal;font-weight:normal;font-stretch:normal;text-indent:0;text-align:start;text-decoration:none;line-height:normal;letter-spacing:normal;word-spacing:normal;text-transform:none;direction:ltr;block-progression:tb;writing-mode:lr-tb;text-anchor:start;baseline-shift:baseline;color:#000000;fill:url(#linearGradient5624);fill-opacity:1;fill-rule:nonzero;stroke:none;stroke-width:10;marker:none;visibility:visible;display:inline;overflow:visible;enable-background:accumulate;font-family:Sans;-inkscape-font-specification:Sans"
               d="m 794.86391,501.75045 a 3.9579281,3.9579281 0 0 0 -3.56178,3.95753 l 0,258.25372 a 3.9579281,3.9579281 0 0 0 3.95753,3.95753 l 235.86894,0 a 3.9579281,3.9579281 0 0 0 3.9575,-3.95753 l 0,-258.25372 a 3.9579281,3.9579281 0 0 0 -3.9575,-3.95753 l -235.86894,0 a 3.9579281,3.9579281 0 0 0 -0.39575,0 z m 4.35329,7.91506 227.9539,0 0,250.33866 -227.9539,0 0,-250.33866 z"
               id="rect4381"
               inkscape:connector-curvature="0" />
          </g>
        </g>
        <path
           sodipodi:nodetypes="cccccc"
           inkscape:connector-curvature="0"
           id="path4399"
           d="m 900.35091,840.16443 -4.3396,-2.57755 -19.44521,0.15047 -0.24392,5.18688 20.79045,-0.17834 z"
           style="color:#000000;fill:#eaeaea;fill-opacity:1;stroke:#eaeaea;stroke-width:1.18725967;stroke-linecap:round;stroke-linejoin:round;stroke-miterlimit:4;stroke-opacity:1;stroke-dasharray:none;stroke-dashoffset:0;marker:none;visibility:visible;display:inline;overflow:visible;enable-background:accumulate"
           inkscape:transform-center-x="-12.373724"
           inkscape:transform-center-y="-3.1713638" />
        <path
           style="color:#000000;fill:#eaeaea;fill-opacity:1;stroke:#eaeaea;stroke-width:1.09856737;stroke-linecap:round;stroke-linejoin:round;stroke-miterlimit:4;stroke-opacity:1;stroke-dasharray:none;stroke-dashoffset:0;marker:none;visibility:visible;display:inline;overflow:visible;enable-background:accumulate"
           d="m 879.02761,830.85768 -19.21277,7.89323 1.68393,4.05427 19.27336,-8.03174 c -0.96945,-2.19276 -0.97297,-2.16556 -1.74471,-3.91567 z"
           id="path4401"
           inkscape:connector-curvature="0"
           sodipodi:nodetypes="ccccc"
           inkscape:transform-center-x="6.4526836"
           inkscape:transform-center-y="-0.22284088" />
      </g>
      <text
         xml:space="preserve"
         style="font-size:2.09911489px;font-style:normal;font-weight:normal;line-height:125%;letter-spacing:0px;word-spacing:0px;fill:#000000;fill-opacity:1;stroke:none;font-family:Sans"
         x="727.68652"
         y="559.72546"
         id="text4552"
         sodipodi:linespacing="125%"
         transform="scale(1.1296841,0.88520322)"
         inkscape:export-filename="/home/samuel/Documents/Associations/Gull/2015-Alternatiba/Affiches/AfficheTableauNoir.png"
         inkscape:export-xdpi="144.39999"
         inkscape:export-ydpi="144.39999"><tspan
           sodipodi:role="line"
           id="tspan4554"
           x="727.68652"
           y="559.72546"
           style="font-size:22.39055634px;font-style:normal;font-variant:normal;font-weight:bold;font-stretch:normal;fill:#e6e6e6;font-family:Purisa;-inkscape-font-specification:Purisa Bold">Je suis responsable</tspan></text>
      <text
         xml:space="preserve"
         style="font-size:2.3064642px;font-style:normal;font-weight:normal;line-height:125%;letter-spacing:0px;word-spacing:0px;fill:#e6e6e6;fill-opacity:1;stroke:none;font-family:Sans"
         x="776.39575"
         y="619.93481"
         id="text4552-4"
         sodipodi:linespacing="125%"
         transform="scale(1.1296841,0.88520322)"
         inkscape:export-filename="/home/samuel/Documents/Associations/Gull/2015-Alternatiba/Affiches/AfficheTableauNoir.png"
         inkscape:export-xdpi="144.39999"
         inkscape:export-ydpi="144.39999"><tspan
           sodipodi:role="line"
           x="776.39575"
           y="619.93481"
           style="font-size:15.37642765px;font-style:normal;font-variant:normal;font-weight:bold;font-stretch:normal;fill:#e6e6e6;font-family:Purisa;-inkscape-font-specification:Purisa Bold"
           id="tspan4581">Tri des déchets</tspan></text>
      <text
         xml:space="preserve"
         style="font-size:2.3064642px;font-style:normal;font-weight:normal;line-height:125%;letter-spacing:0px;word-spacing:0px;fill:#e6e6e6;fill-opacity:1;stroke:none;font-family:Sans"
         x="777.68573"
         y="651.10345"
         id="text4552-4-3"
         sodipodi:linespacing="125%"
         transform="scale(1.1296841,0.88520322)"
         inkscape:export-filename="/home/samuel/Documents/Associations/Gull/2015-Alternatiba/Affiches/AfficheTableauNoir.png"
         inkscape:export-xdpi="144.39999"
         inkscape:export-ydpi="144.39999"><tspan
           sodipodi:role="line"
           x="777.68573"
           y="651.10345"
           style="font-size:15.37642765px;font-style:normal;font-variant:normal;font-weight:bold;font-stretch:normal;fill:#e6e6e6;font-family:Purisa;-inkscape-font-specification:Purisa Bold"
           id="tspan4581-2">Coton bio</tspan></text>
      <text
         xml:space="preserve"
         style="font-size:2.3064642px;font-style:normal;font-weight:normal;line-height:125%;letter-spacing:0px;word-spacing:0px;fill:#e6e6e6;fill-opacity:1;stroke:none;font-family:Sans"
         x="777.28607"
         y="679.29547"
         id="text4552-4-3-4"
         sodipodi:linespacing="125%"
         transform="scale(1.1296841,0.88520322)"
         inkscape:export-filename="/home/samuel/Documents/Associations/Gull/2015-Alternatiba/Affiches/AfficheTableauNoir.png"
         inkscape:export-xdpi="144.39999"
         inkscape:export-ydpi="144.39999"><tspan
           sodipodi:role="line"
           x="777.28607"
           y="679.29547"
           style="font-size:15.37642765px;font-style:normal;font-variant:normal;font-weight:bold;font-stretch:normal;fill:#e6e6e6;font-family:Purisa;-inkscape-font-specification:Purisa Bold"
           id="tspan4581-2-2">Légumes de proximité</tspan></text>
      <text
         xml:space="preserve"
         style="font-size:2.3064642px;font-style:normal;font-weight:normal;line-height:125%;letter-spacing:0px;word-spacing:0px;fill:#e6e6e6;fill-opacity:1;stroke:none;font-family:Sans"
         x="776.66479"
         y="708.4101"
         id="text4552-4-3-4-5"
         sodipodi:linespacing="125%"
         transform="scale(1.1296841,0.88520322)"
         inkscape:export-filename="/home/samuel/Documents/Associations/Gull/2015-Alternatiba/Affiches/AfficheTableauNoir.png"
         inkscape:export-xdpi="144.39999"
         inkscape:export-ydpi="144.39999"><tspan
           sodipodi:role="line"
           x="776.66479"
           y="708.4101"
           style="font-size:15.37642765px;font-style:normal;font-variant:normal;font-weight:bold;font-stretch:normal;fill:#e6e6e6;font-family:Purisa;-inkscape-font-specification:Purisa Bold"
           id="tspan4581-2-2-9">Café équitable</tspan></text>
      <path
         style="fill:#e6e6e6;fill-opacity:1;stroke:none"
         id="path5467"
         d="m 836.82959,520.76795 c 3.39873,-2.36352 6.63176,-5.33217 10.28688,-7.05553 2.2994,-1.19318 4.70003,-1.95033 7.09524,-2.73614 3.02056,-0.9944 6.05427,-1.93107 9.12477,-2.63046 2.59234,-0.50993 5.20059,-0.82984 7.81363,-1.09551 7.01305,-0.50793 14.0446,-0.39177 21.06586,-0.38617 8.24213,-0.0448 16.48822,0.23164 24.72823,-0.12272 3.17216,-0.13638 8.88514,-0.5675 12.08227,-0.79636 9.99475,-0.82944 20.00169,-1.30635 30.01493,-1.50416 11.11639,-0.11596 22.23339,-0.0277 33.34992,0.0126 13.58948,0.0732 27.17878,0.0804 40.76828,0.0232 8.211,0.0962 16.4197,0.32898 24.6172,0.95297 0.821,0.11327 1.6439,0.20585 2.463,0.33997 5.6341,0.92185 -0.2218,0.12502 5.9779,1.04938 3.6724,0.54753 7.3416,1.02415 11.007,1.65097 4.1148,0.58263 8.1906,1.4735 12.2588,2.44395 0,0 -5.3322,4.79917 -5.3322,4.79917 l 0,0 c -3.9731,-1.08277 -7.9692,-1.9878 -12.0032,-2.61018 -6.547,-1.09101 -13.1271,-1.80429 -19.685,-2.76336 -7.9387,-0.86475 -15.8864,-1.52614 -23.8582,-1.59073 -13.5963,-0.0642 -27.1924,-0.0665 -40.78867,-0.004 -11.2158,0.0402 -22.43198,0.0789 -33.6469,0.28051 -9.92982,0.21318 -19.85745,0.57796 -29.77354,1.31087 -3.50278,0.2281 -8.5351,0.57965 -12.0231,0.70903 -8.31009,0.30825 -16.62647,0.0654 -24.93751,0.30949 -7.22358,0.14502 -14.46206,0.21004 -21.66295,1.03604 -2.60979,0.3466 -5.22226,0.68308 -7.81668,1.19187 -3.05984,0.71682 -6.08616,1.64836 -9.09129,2.67916 -2.41142,0.8102 -4.81188,1.66979 -7.1199,2.89952 -0.86186,0.47507 -1.70073,0.98914 -2.5389,1.5302 -0.23546,0.15196 -0.93051,0.63516 -0.70391,0.46221 1.99176,-1.5204 7.4066,-5.53227 4.84054,-3.63047 0,0 -6.5125,3.24376 -6.5125,3.24376 z"
         inkscape:connector-curvature="0"
         inkscape:export-filename="/home/samuel/Documents/Associations/Gull/2015-Alternatiba/Affiches/AfficheTableauNoir.png"
         inkscape:export-xdpi="144.39999"
         inkscape:export-ydpi="144.39999" />
      <rect
         style="fill:#000000;fill-opacity:1;stroke:#e6e6e6;stroke-width:1.90806079;stroke-miterlimit:4;stroke-opacity:1;stroke-dasharray:none"
         id="rect5469"
         width="16.453291"
         height="10.88704"
         x="845.61743"
         y="539.29803"
         inkscape:export-filename="/home/samuel/Documents/Associations/Gull/2015-Alternatiba/Affiches/AfficheTableauNoir.png"
         inkscape:export-xdpi="144.39999"
         inkscape:export-ydpi="144.39999" />
      <rect
         style="fill:#000000;fill-opacity:1;stroke:#e6e6e6;stroke-width:1.90806079;stroke-miterlimit:4;stroke-opacity:1;stroke-dasharray:none"
         id="rect5469-1"
         width="16.453291"
         height="10.88704"
         x="845.56952"
         y="564.99628"
         inkscape:export-filename="/home/samuel/Documents/Associations/Gull/2015-Alternatiba/Affiches/AfficheTableauNoir.png"
         inkscape:export-xdpi="144.39999"
         inkscape:export-ydpi="144.39999" />
      <rect
         style="fill:#000000;fill-opacity:1;stroke:#e6e6e6;stroke-width:1.90806079;stroke-miterlimit:4;stroke-opacity:1;stroke-dasharray:none"
         id="rect5469-0"
         width="16.453291"
         height="10.88704"
         x="845.71008"
         y="590.52722"
         inkscape:export-filename="/home/samuel/Documents/Associations/Gull/2015-Alternatiba/Affiches/AfficheTableauNoir.png"
         inkscape:export-xdpi="144.39999"
         inkscape:export-ydpi="144.39999" />
      <rect
         style="fill:#000000;fill-opacity:1;stroke:#e6e6e6;stroke-width:1.90806079;stroke-miterlimit:4;stroke-opacity:1;stroke-dasharray:none"
         id="rect5469-9"
         width="16.453291"
         height="10.88704"
         x="845.71008"
         y="616.11816"
         inkscape:export-filename="/home/samuel/Documents/Associations/Gull/2015-Alternatiba/Affiches/AfficheTableauNoir.png"
         inkscape:export-xdpi="144.39999"
         inkscape:export-ydpi="144.39999" />
      <path
         style="fill:#00ff00;fill-opacity:1;stroke:none"
         id="path5513"
         d="m 850.10625,570.02534 c 0.40156,0.8329 0.91595,1.5975 1.40645,2.37097 0.44473,0.67385 0.85496,1.3718 1.25799,2.07506 0.0548,0.0956 0.52185,0.94197 0.65615,1.0728 0.0659,0.0643 0.16919,0.059 0.25378,0.0886 -0.81211,0.43559 -1.58755,0.96219 -2.43634,1.30678 -0.16595,0.0674 0.23872,-0.28643 0.32893,-0.4512 0.13912,-0.25414 0.24517,-0.52801 0.35509,-0.79831 0.11597,-0.28515 0.72718,-1.94773 0.81753,-2.18522 0.15545,-0.40854 0.31682,-0.81443 0.47523,-1.22164 1.04966,-2.42974 2.68863,-4.46493 4.47092,-6.30369 0.41307,-0.42616 0.84483,-0.83072 1.26725,-1.24608 1.27266,-1.22306 2.60427,-2.37663 4.0031,-3.42777 0.89503,-0.67256 1.26762,-0.89897 2.16141,-1.48566 0,0 2.53246,-1.0529 2.53246,-1.0529 l 0,0 c -0.96017,0.60029 -1.36361,0.83127 -2.31719,1.5245 -1.41899,1.0315 -2.76493,2.17727 -4.03887,3.40916 -0.41491,0.40717 -0.83891,0.80383 -1.24473,1.22154 -1.73941,1.79045 -3.35278,3.76798 -4.37657,6.13743 -0.38971,1.03937 -0.49763,1.29335 -0.83868,2.33106 -0.10971,0.33381 -0.2077,0.672 -0.31406,1.00706 -0.0836,0.26324 -0.16902,0.52581 -0.25571,0.78789 -0.0626,0.18927 -0.0365,0.45599 -0.19213,0.56612 -0.92872,0.65676 -1.96994,1.10621 -2.95491,1.65933 -0.0856,-0.0855 -0.18739,-0.15513 -0.25649,-0.25641 -0.10284,-0.15081 -0.16869,-0.32735 -0.25331,-0.49085 -0.10946,-0.21149 -0.21598,-0.42489 -0.32905,-0.63418 -0.30844,-0.57095 -0.46737,-0.84157 -0.82248,-1.38458 -0.14511,-0.22185 -0.29806,-0.43761 -0.44707,-0.65641 -0.5316,-0.76197 -1.07338,-1.51536 -1.6084,-2.27446 0,0 2.6997,-1.68886 2.6997,-1.68886 z"
         inkscape:connector-curvature="0"
         inkscape:export-filename="/home/samuel/Documents/Associations/Gull/2015-Alternatiba/Affiches/AfficheTableauNoir.png"
         inkscape:export-xdpi="144.39999"
         inkscape:export-ydpi="144.39999" />
      <path
         style="fill:#00ff00;fill-opacity:1;stroke:none"
         id="path5513-7"
         d="m 850.9848,543.05205 c 0.40156,0.83288 0.91596,1.5975 1.40645,2.37096 0.44473,0.67384 0.85496,1.3718 1.25799,2.07505 0.0548,0.0956 0.52185,0.94197 0.65616,1.07281 0.0659,0.0643 0.16917,0.059 0.25376,0.0886 -0.81211,0.43559 -1.58754,0.9622 -2.43633,1.3068 -0.16595,0.0674 0.23872,-0.28645 0.32893,-0.45121 0.13912,-0.25415 0.24518,-0.52803 0.35509,-0.79832 0.11596,-0.28514 0.72719,-1.94772 0.81754,-2.1852 0.15544,-0.40855 0.31681,-0.81445 0.47523,-1.22167 1.04967,-2.42972 2.68861,-4.46492 4.47091,-6.30366 0.41307,-0.42616 0.84484,-0.83074 1.26726,-1.2461 1.27265,-1.22306 2.60426,-2.37662 4.00308,-3.42778 0.89503,-0.67255 1.26762,-0.89895 2.16143,-1.48564 0,0 2.53245,-1.05291 2.53245,-1.05291 l 0,0 c -0.96017,0.60031 -1.36361,0.83129 -2.3172,1.52451 -1.41897,1.03151 -2.76492,2.17726 -4.03886,3.40916 -0.4149,0.40717 -0.83892,0.80384 -1.24472,1.22155 -1.73942,1.79042 -3.35279,3.76795 -4.37657,6.13741 -0.38973,1.03938 -0.49763,1.29335 -0.8387,2.33106 -0.1097,0.33381 -0.20769,0.67199 -0.31405,1.00708 -0.0836,0.26323 -0.16903,0.52581 -0.25572,0.78787 -0.0626,0.18927 -0.0365,0.456 -0.1921,0.56614 -0.92875,0.65675 -1.96997,1.10621 -2.95494,1.65933 -0.0855,-0.0856 -0.18738,-0.15515 -0.25649,-0.25644 -0.10283,-0.1508 -0.16868,-0.32734 -0.25331,-0.49083 -0.10946,-0.21151 -0.21597,-0.42488 -0.32905,-0.63419 -0.30843,-0.57095 -0.46736,-0.84157 -0.82248,-1.38458 -0.1451,-0.22185 -0.29805,-0.43759 -0.44706,-0.65639 -0.53159,-0.76197 -1.07338,-1.51537 -1.60839,-2.27447 0,0 2.69969,-1.68886 2.69969,-1.68886 z"
         inkscape:connector-curvature="0"
         inkscape:export-filename="/home/samuel/Documents/Associations/Gull/2015-Alternatiba/Affiches/AfficheTableauNoir.png"
         inkscape:export-xdpi="144.39999"
         inkscape:export-ydpi="144.39999" />
      <path
         style="fill:#00ff00;fill-opacity:1;stroke:none"
         id="path5513-4"
         d="m 850.81109,594.23041 c 0.40157,0.83288 0.91595,1.59749 1.40644,2.37096 0.44473,0.67384 0.85497,1.37179 1.258,2.07505 0.0548,0.0956 0.52185,0.94197 0.65616,1.07281 0.0659,0.0643 0.16917,0.059 0.25376,0.0886 -0.81212,0.43559 -1.58754,0.96219 -2.43633,1.30677 -0.16596,0.0674 0.23872,-0.28643 0.32892,-0.45118 0.13914,-0.25414 0.24519,-0.52803 0.35511,-0.79831 0.11596,-0.28515 0.72717,-1.94773 0.81753,-2.18523 0.15544,-0.40853 0.31681,-0.81443 0.47522,-1.22165 1.04967,-2.42972 2.68863,-4.46492 4.47091,-6.30367 0.41307,-0.42618 0.84484,-0.83073 1.26726,-1.24609 1.27266,-1.22306 2.60426,-2.37663 4.0031,-3.42778 0.89503,-0.67256 1.26761,-0.89895 2.16142,-1.48565 0,0 2.53245,-1.0529 2.53245,-1.0529 l 0,0 c -0.96017,0.60029 -1.3636,0.83129 -2.3172,1.5245 -1.41897,1.03152 -2.76493,2.17727 -4.03886,3.40917 -0.41491,0.40717 -0.83893,0.80382 -1.24473,1.22154 -1.7394,1.79043 -3.35278,3.76797 -4.37657,6.13741 -0.38973,1.03939 -0.49763,1.29336 -0.83869,2.33107 -0.10971,0.33382 -0.20768,0.67199 -0.31404,1.00706 -0.0836,0.26325 -0.16905,0.52582 -0.25574,0.78788 -0.0626,0.18928 -0.0365,0.456 -0.1921,0.56614 -0.92875,0.65675 -1.96996,1.10621 -2.95492,1.65933 -0.0856,-0.0855 -0.1874,-0.15513 -0.25649,-0.25643 -0.10284,-0.1508 -0.1687,-0.32734 -0.25333,-0.49084 -0.10946,-0.2115 -0.21596,-0.42488 -0.32903,-0.63417 -0.30844,-0.57096 -0.46737,-0.84159 -0.82249,-1.38459 -0.1451,-0.22184 -0.29805,-0.4376 -0.44707,-0.65639 -0.53158,-0.76198 -1.07336,-1.51538 -1.60839,-2.27447 0,0 2.6997,-1.68887 2.6997,-1.68887 z"
         inkscape:connector-curvature="0"
         inkscape:export-filename="/home/samuel/Documents/Associations/Gull/2015-Alternatiba/Affiches/AfficheTableauNoir.png"
         inkscape:export-xdpi="144.39999"
         inkscape:export-ydpi="144.39999" />
      <path
         style="fill:#00ff00;fill-opacity:1;stroke:none"
         id="path5513-1"
         d="m 851.15852,619.68345 c 0.40156,0.8329 0.91595,1.59751 1.40643,2.37096 0.44474,0.67386 0.85498,1.37181 1.258,2.07507 0.0548,0.0956 0.52185,0.94197 0.65617,1.07281 0.0659,0.0643 0.16915,0.059 0.25376,0.0886 -0.81211,0.43559 -1.58755,0.9622 -2.43633,1.30678 -0.16596,0.0674 0.23871,-0.28643 0.32893,-0.45119 0.13912,-0.25415 0.24517,-0.52802 0.35509,-0.79832 0.11596,-0.28514 0.72717,-1.94772 0.81753,-2.18522 0.15544,-0.40854 0.31681,-0.81442 0.47522,-1.22164 1.04967,-2.42973 2.68863,-4.46494 4.47091,-6.30368 0.41309,-0.42617 0.84485,-0.83074 1.26726,-1.24609 1.27266,-1.22306 2.60427,-2.37662 4.0031,-3.42778 0.89503,-0.67256 1.2676,-0.89895 2.16142,-1.48564 0,0 2.53245,-1.05291 2.53245,-1.05291 l 0,0 c -0.96017,0.60029 -1.3636,0.83128 -2.31719,1.52451 -1.41897,1.0315 -2.76493,2.17726 -4.03886,3.40915 -0.41491,0.40717 -0.83893,0.80383 -1.24474,1.22155 -1.7394,1.79044 -3.35278,3.76797 -4.37656,6.13742 -0.38972,1.03938 -0.49763,1.29335 -0.83869,2.33106 -0.10983,0.33381 -0.2077,0.67199 -0.31405,1.00706 -0.0836,0.26325 -0.16903,0.52581 -0.25572,0.78789 -0.0626,0.18928 -0.0365,0.456 -0.19212,0.56612 -0.92874,0.65677 -1.96995,1.10621 -2.95492,1.65933 -0.0855,-0.0855 -0.1874,-0.15513 -0.25649,-0.25641 -0.10283,-0.15081 -0.16869,-0.32735 -0.25332,-0.49084 -0.10947,-0.2115 -0.21597,-0.42489 -0.32904,-0.63419 -0.30845,-0.57096 -0.46737,-0.84157 -0.8225,-1.38458 -0.14509,-0.22185 -0.29803,-0.4376 -0.44706,-0.65641 -0.53158,-0.76197 -1.07336,-1.51535 -1.60838,-2.27445 0,0 2.6997,-1.68887 2.6997,-1.68887 z"
         inkscape:connector-curvature="0"
         inkscape:export-filename="/home/samuel/Documents/Associations/Gull/2015-Alternatiba/Affiches/AfficheTableauNoir.png"
         inkscape:export-xdpi="144.39999"
         inkscape:export-ydpi="144.39999" />
      <text
         xml:space="preserve"
         style="font-size:2.09911489px;font-style:normal;font-weight:normal;line-height:125%;letter-spacing:0px;word-spacing:0px;fill:#ffffff;fill-opacity:1;stroke:none;font-family:Sans"
         x="858.06256"
         y="783.59619"
         id="text4552-3-4"
         sodipodi:linespacing="125%"
         transform="scale(1.1296841,0.88520322)"
         inkscape:export-filename="/home/samuel/Documents/Associations/Gull/2015-Alternatiba/Affiches/AfficheTableauNoir.png"
         inkscape:export-xdpi="144.39999"
         inkscape:export-ydpi="144.39999"><tspan
           sodipodi:role="line"
           id="tspan4554-8-1"
           x="863.49072"
           y="783.59619"
           style="font-size:16.79291916px;font-style:normal;font-variant:normal;font-weight:bold;font-stretch:normal;text-align:center;text-anchor:middle;fill:#ffffff;fill-opacity:1;font-family:Purisa;-inkscape-font-specification:Purisa Bold">Soyez libres ! </tspan><tspan
           sodipodi:role="line"
           x="863.49072"
           y="804.58734"
           style="font-size:16.79291916px;font-style:normal;font-variant:normal;font-weight:bold;font-stretch:normal;text-align:center;text-anchor:middle;fill:#ffffff;fill-opacity:1;font-family:Purisa;-inkscape-font-specification:Purisa Bold"
           id="tspan5608">Vous avez aussi le </tspan><tspan
           sodipodi:role="line"
           x="863.49072"
           y="825.57849"
           style="font-size:16.79291916px;font-style:normal;font-variant:normal;font-weight:bold;font-stretch:normal;text-align:center;text-anchor:middle;fill:#ffffff;fill-opacity:1;font-family:Purisa;-inkscape-font-specification:Purisa Bold"
           id="tspan5610">choix d'une informatique </tspan><tspan
           sodipodi:role="line"
           x="858.06256"
           y="846.56964"
           style="font-size:16.79291916px;font-style:normal;font-variant:normal;font-weight:bold;font-stretch:normal;text-align:center;text-anchor:middle;fill:#ffffff;fill-opacity:1;font-family:Purisa;-inkscape-font-specification:Purisa Bold"
           id="tspan5612">éthique et durable !</tspan></text>
      <path
         style="fill:#ffffff;fill-opacity:1;stroke:none"
         id="path5635"
         d="m 858.28925,757.63191 c 2.28708,-0.0763 4.57281,-0.18926 6.84915,-0.33332 3.00784,-0.19412 6.03492,-0.24967 9.0612,-0.28769 3.48462,-0.0263 6.96953,0 10.4543,-0.0175 2.48681,-0.0191 4.97325,-0.0348 7.46034,-0.0308 3.07886,0.005 6.15721,0.0363 9.2358,0.0568 4.69589,0.0122 9.3918,0.0237 14.08776,0.0173 3.35952,-0.0174 6.71106,-0.1021 10.05644,0.0939 2.2926,0.15391 4.56982,0.35179 6.87436,0.4552 0,0 -8.84022,3.31273 -8.84022,3.31273 l 0,0 c -2.25523,-0.15993 -4.49749,-0.3701 -6.76199,-0.49189 -3.21076,-0.15496 -6.43486,-0.1709 -9.65746,-0.17628 -4.7261,-0.007 -9.45214,0.007 -14.17821,0.0173 -3.1764,0.0203 -6.3526,0.0512 -9.52929,0.0553 -2.4283,0.003 -4.85581,-0.0156 -7.28379,-0.0366 -3.49415,-0.0183 -6.98856,9.4e-4 -10.48181,0.0468 -3.02349,0.0486 -6.04587,0.13789 -9.04761,0.34363 -2.40299,0.14077 -4.80472,0.29612 -7.21548,0.39388 0,0 8.91651,-3.41897 8.91651,-3.41897 z"
         inkscape:connector-curvature="0"
         inkscape:export-filename="/home/samuel/Documents/Associations/Gull/2015-Alternatiba/Affiches/AfficheTableauNoir.png"
         inkscape:export-xdpi="144.39999"
         inkscape:export-ydpi="144.39999" />
      <path
         style="fill:#ffffff;fill-opacity:1;stroke:none"
         id="path5643"
         d="m 983.28894,757.52814 c 1.36479,-0.24511 2.78592,-0.34303 4.19985,-0.48125 2.34842,-0.16189 4.71537,-0.23467 7.06925,-0.37682 3.04678,-0.18668 6.09546,-0.3626 9.14416,-0.54201 3.8764,-0.16845 7.771,-0.17092 11.6586,-0.18078 4.8874,-0.004 9.7748,-0.004 14.6623,0.003 4.8949,-0.003 9.7897,0.011 14.6845,-0.015 2.9387,-0.0527 5.8796,0.011 8.7758,0.27316 2.0352,0.24394 4.0548,0.51234 6.1244,0.66971 0.2752,0.0161 0.5505,0.0322 0.8258,0.0484 0,0 -8.8884,3.19206 -8.8884,3.19206 l 0,0 c -0.2711,-0.024 -0.5421,-0.0481 -0.8132,-0.0723 -2.0327,-0.20533 -4.0337,-0.47935 -6.0657,-0.68652 -2.7636,-0.22 -5.5496,-0.33393 -8.3494,-0.31872 -4.8627,-0.0281 -9.7256,-0.0151 -14.5885,-0.0207 -4.9108,0.004 -9.8219,-0.004 -14.7324,0.0318 -3.9422,0.0373 -7.89313,0.0735 -11.81374,0.30681 -3.05935,0.17717 -6.11811,0.35409 -9.17181,0.55499 -2.39425,0.14406 -4.80611,0.23473 -7.17578,0.4671 -1.45647,0.14324 -2.88519,0.33647 -4.27522,0.60321 0,0 8.72949,-3.4554 8.72949,-3.4554 z"
         inkscape:connector-curvature="0"
         inkscape:export-filename="/home/samuel/Documents/Associations/Gull/2015-Alternatiba/Affiches/AfficheTableauNoir.png"
         inkscape:export-xdpi="144.39999"
         inkscape:export-ydpi="144.39999" />
      <g
         id="g5646"
         clip-rule="evenodd"
         transform="matrix(-0.02567532,0.03920875,-0.05003766,-0.02011879,1126.5888,773.08028)"
         style="fill:#ffffff;fill-opacity:1;fill-rule:evenodd"
         inkscape:export-xdpi="144.39999"
         inkscape:export-ydpi="144.39999"
         inkscape:export-filename="/home/samuel/Documents/Associations/Gull/2015-Alternatiba/Affiches/AfficheTableauNoir.png">
        <path
           id="path5648"
           d="m 441.09,0 h 4.132 c 2.556,1.057 5.261,1.96 6.716,4.109 -3.038,0.269 -8.146,-1.168 -11.363,1.026 8.873,1.758 20.4,6.867 13.945,19 1.965,2.84 3.721,8.387 1.549,12.326 -0.094,1.121 0.424,1.634 1.551,1.541 -1.34,1.064 -3.418,1.396 -4.134,3.081 -0.567,3.749 2.543,5.702 3.101,9.245 1.004,6.415 -2.857,12.962 -1.033,19.515 -0.088,1.114 1.831,0.233 2.582,0.514 -3.271,2.909 -5.873,6.486 -5.165,13.352 -2.485,3.863 -5.743,6.957 -9.813,9.244 0.529,1.7 1.432,3.029 3.615,3.082 -4.906,2.996 -5.414,10.366 -9.298,14.38 -1.872,-0.363 -2.21,-2.252 -5.163,-1.541 -1.328,0.05 -0.74,2.005 -2.066,2.055 3.602,2.732 7.689,2.07 10.33,5.649 2.068,2.805 1.256,8.198 5.682,9.244 0.679,-0.524 1.902,-0.504 2.582,-1.027 0.309,-1.848 -0.186,-2.896 -1.549,-3.082 0.708,-1.351 2.175,-1.946 2.582,-3.594 2.686,5.034 -0.012,11.856 -6.715,10.785 1.027,4.39 -3.053,9.781 0.518,11.812 -1.373,3.036 -2.236,7.982 0.516,10.271 3.221,-0.05 4.574,-1.956 5.682,-4.109 0.956,3.87 -3.109,7.176 -5.166,9.758 -1.013,9.436 -3.838,17.068 -6.197,25.164 0.659,0.703 2.438,0.703 3.1,0 1.174,-3.968 0.182,-10.088 3.614,-11.811 5.489,-0.349 5.903,9.122 1.55,10.271 1.028,-1.28 0.289,-4.091 -1.034,-4.623 -4.241,4.349 -0.688,12.335 -2.063,18.489 -1.129,5.043 -4.033,8.299 -5.682,11.811 1.793,3.949 -1.455,7.768 0,11.299 2.48,-0.466 5.213,-4.315 2.582,-6.677 1.824,-1.612 3.992,0.802 4.131,2.568 -0.337,1.719 -1.976,2.142 -2.582,3.594 2.318,8.798 -2.588,16.212 0,22.083 -6.318,5.528 -3.525,20.117 -9.813,25.677 -0.049,9.025 -7.836,10.356 -11.364,15.92 -0.312,1.23 -0.741,2.343 -0.517,4.108 -6.346,0.484 -9.99,-8.915 -14.979,-13.353 -5.719,-5.088 -11.547,-9.519 -3.098,-15.406 -2.394,-0.315 -0.478,-2.736 -1.033,-4.108 -1.055,-2.605 -3.537,-3.697 -6.199,-4.622 -7.426,-5.487 -7.805,-20.676 -0.516,-26.705 0.502,-7.716 5.232,-11.229 7.748,-16.947 7.067,-2.767 14.171,1.074 22.209,0.514 -3.686,-9.175 -23.858,-1.954 -29.957,-8.729 0.445,-3.183 -0.529,-4.954 -3.101,-5.136 1.95,-2.854 2.989,-8.183 0.519,-11.298 -0.53,-3.15 4.124,-7.421 0.516,-8.73 0.887,-1.415 3.129,-2.515 1.033,-4.108 -2.959,1.68 -3.225,6.037 -8.264,5.648 0.797,-1.432 2.762,-1.704 3.615,-3.081 0.312,-1.85 -1.576,-1.514 -1.549,-3.081 0.727,-4.161 5.963,-4.538 6.197,-8.731 0.088,-1.582 -1.695,-2.213 -2.583,-4.622 -1.885,-5.119 0.397,-10.625 -3.099,-12.325 1.85,-15.793 7.512,-27.796 21.178,-31.84 -1.636,-3.51 -8.988,-1.336 -10.332,-5.136 0.441,-1.958 1.537,-3.266 2.066,-5.135 -0.189,-1.523 -0.895,-2.533 -2.066,-3.082 0.764,-1.809 2.037,-3.111 3.1,-4.622 -8.594,-8.159 -4.188,-26.054 -7.23,-37.489 5.43,-10.692 6.992,-25.231 13.43,-34.921 2.117,-0.644 4.514,3.251 7.231,2.567 4.3,-1.082 0.387,-2.998 1.548,-7.189 1.516,-5.469 9.189,-4.507 15.496,-6.676 4.57,-1.572 5.64,-4.773 8.75,-6.153 z m -13.43,204.91 c 1.615,2.717 8.389,2.958 8.781,-1.028 -3.44,-0.26 -7.11,-2.07 -8.78,1.03 z m 7.23,22.08 c 1.023,1.549 2.672,2.478 4.131,3.594 0.613,-3.127 1.466,-10.145 -1.031,-11.811 -1.18,2.6 -3.76,3.79 -3.1,8.22 z"
           inkscape:connector-curvature="0"
           style="fill:#ffffff;fill-opacity:1" />
        <path
           id="path5650"
           d="m 457.62,2.568 c 0.754,0.448 2,0.408 1.549,2.055 H 457.62 V 2.568 z"
           inkscape:connector-curvature="0"
           style="fill:#ffffff;fill-opacity:1" />
        <path
           id="path5652"
           d="m 405.45,6.677 c 0.01,-0.785 3.828,-1.126 3.1,0.514 -1.58,0.37 -1.88,-0.526 -3.1,-0.514 z"
           inkscape:connector-curvature="0"
           style="fill:#ffffff;fill-opacity:1" />
        <path
           id="path5654"
           d="m 460.2,7.19 c 1.102,0.476 0.705,3.734 -1.033,3.081 -0.25,-1.616 0.73,-2.007 1.03,-3.081 z"
           inkscape:connector-curvature="0"
           style="fill:#ffffff;fill-opacity:1" />
        <path
           id="path5656"
           d="m 400.8,12.839 c 0.735,3.271 5.602,6.53 2.584,10.271 -6.84,0.029 -8.7,-8.186 -2.58,-10.271 z"
           inkscape:connector-curvature="0"
           style="fill:#ffffff;fill-opacity:1" />
        <path
           id="path5658"
           d="m 460.72,32.868 c 1.811,0.046 3.613,1.799 2.582,3.081 -1.78,-0.117 -2.25,-1.529 -2.58,-3.081 z"
           inkscape:connector-curvature="0"
           style="fill:#ffffff;fill-opacity:1" />
        <path
           id="path5660"
           d="m 249.47,58.546 c 2.324,4.527 1.528,6.734 3.616,9.757 4.231,6.126 13.335,5.428 13.945,13.866 0.241,1.095 -0.738,0.978 -1.55,1.028 2.478,4.919 0.996,10.627 4.648,14.379 -1.206,-0.159 -2.133,-1.006 -3.098,0 -0.437,4.713 3.644,4.936 5.682,7.189 -0.493,3.277 -2.481,5.065 -4.132,7.191 1.841,8.553 12.677,23.495 4.132,31.326 -2.604,2.386 -6.47,2.127 -9.813,4.622 2.803,5.577 7.502,-0.62 11.363,0 5.283,0.85 5.708,9.677 7.231,15.92 0.721,2.955 2.592,6.506 2.582,8.73 -0.017,4.295 -2.947,8.301 -3.099,11.298 1.236,1.169 1.901,-1.127 4.131,-0.514 2.657,4.036 3.04,10.331 7.748,12.325 -2.927,3.752 2.206,5.199 3.1,8.217 -5.935,0.422 -4.719,-6.264 -8.264,-8.217 -1.394,1.155 -1.356,4.133 0.516,4.623 -1.171,6.024 -8.989,5.44 -9.813,11.811 2.244,1.057 7.26,-1.229 8.781,1.541 -1.076,2.868 -1.715,6.169 -5.682,6.163 -0.335,2.515 -0.09,2.412 0,5.135 2.01,0.342 1.908,-1.525 4.132,0.515 1.911,-1.009 2.461,-3.374 3.099,-5.649 2.524,3.484 -2.864,15.636 5.682,14.379 0.526,4.291 -1.401,6.14 -1.55,9.757 4.094,3.805 4.423,11.351 7.231,16.434 1.545,-0.707 1.078,-3.717 0.517,-5.135 5.027,2.552 -0.876,7.415 -0.517,11.298 0.367,3.971 3.71,4.796 6.198,7.703 1.461,6.26 -7.384,8.873 -6.715,13.353 0.467,3.125 4.516,3.392 7.747,5.136 -0.315,2.083 -1.781,3.021 -1.549,5.649 0.867,2.364 5.438,1.504 7.748,1.026 -1.651,4.144 3.524,5.665 3.099,10.271 -9.956,4.651 -16.82,12.377 -30.99,12.839 0.41,-1.132 2.428,-0.667 2.582,-2.054 -1.478,-1.784 -4.564,-1.967 -7.23,-2.568 6.563,-9.997 -3.751,-15.355 -10.33,-18.488 -0.878,-5.46 -6.205,-6.498 -7.747,-11.297 -0.093,-1.803 1.744,-1.689 2.065,-3.082 0.294,1.622 -0.61,6.503 3.099,6.163 -0.014,-3.979 -0.095,-6.229 -1.032,-10.27 -2.764,-0.848 -5.761,-1.462 -7.748,-3.082 -2.144,-5.679 3.49,-12.111 -1.032,-15.92 2.957,-1.203 0.554,-4.095 0,-6.163 1.972,0.248 3.297,-0.146 4.132,-1.026 -3.018,-4.019 -7.87,-6.213 -8.264,-12.839 -0.5,-1.386 -1.296,-2.478 -3.099,-2.567 2.464,-2.933 -0.723,-4.642 -1.034,-7.704 6.279,-5.011 -1.601,-7.693 -7.229,-9.244 -1.706,-2.923 -1.679,-4.789 -2.067,-9.244 -1.114,-12.795 -12.965,-19.578 -1.549,-29.786 -1.679,-2.354 -7.443,-1.919 -9.813,-2.055 -2.426,-6.389 2.552,-8.368 6.197,-10.27 0.532,-3.268 -0.723,-4.759 -1.549,-6.676 1.458,0.602 2.193,0.102 3.615,-0.514 0.688,-1.542 0.524,-3.929 0.517,-6.163 -6.008,0.153 -10.596,-1.105 -13.946,-3.595 -1.077,0.812 -1.012,2.759 -3.099,2.567 -2.473,0.063 -3.099,-1.711 -3.099,-4.108 -0.383,-1.976 2.815,0.667 3.099,-1.541 -5.123,-6.889 -5.868,-18.129 -11.363,-24.65 3.097,-7.106 -2.492,-15.665 2.067,-21.57 -2.038,-6.389 0.38,-14.102 -4.132,-19.514 -0.159,-1.185 1.492,-0.57 1.549,-1.542 0.406,-2.116 -2.474,-0.964 -2.066,-3.081 9.58,-10.979 20.33,-28.464 42.32,-22.077 z m 28.92,117.08 c 3.136,0.21 4.41,-1.435 4.132,-4.621 -1.138,-0.752 -2.219,-1.56 -4.132,-1.541 0.23,1.76 1.18,4.62 0,6.16 z m -19.62,57.52 c 0.69,-1.386 3.783,-3.06 2.065,-5.135 -0.62,1.46 -3.71,3.14 -2.07,5.13 z"
           inkscape:connector-curvature="0"
           style="fill:#ffffff;fill-opacity:1" />
        <path
           id="path5662"
           d="m 386.86,72.412 c -0.414,1.781 0.77,1.974 0.518,3.594 -1.573,-0.492 -3.523,-0.604 -4.134,-2.054 0.11,-2.035 2.11,-2.204 3.61,-1.54 z"
           inkscape:connector-curvature="0"
           style="fill:#ffffff;fill-opacity:1" />
        <path
           id="path5664"
           d="m 599.14,100.14 c 2.689,2.14 -0.104,7.317 0.518,10.785 -1.21,-2.56 -2.55,-8.11 -0.52,-10.78 z"
           inkscape:connector-curvature="0"
           style="fill:#ffffff;fill-opacity:1" />
        <path
           id="path5666"
           d="m 395.12,105.79 c 1.838,0.852 1.734,7.144 -1.549,6.164 -1.49,-2.25 0.83,-4.46 1.55,-6.16 z"
           inkscape:connector-curvature="0"
           style="fill:#ffffff;fill-opacity:1" />
        <path
           id="path5668"
           d="m 445.74,116.06 c -2.47,-0.966 -3.913,-2.957 -4.13,-6.163 4.24,-2.72 6.84,3.41 4.13,6.16 z"
           inkscape:connector-curvature="0"
           style="fill:#ffffff;fill-opacity:1" />
        <path
           id="path5670"
           d="m 599.14,116.58 c 1.036,0.572 0.592,3.972 0,4.622 -1.04,-0.57 -0.59,-3.97 0,-4.62 z"
           inkscape:connector-curvature="0"
           style="fill:#ffffff;fill-opacity:1" />
        <path
           id="path5672"
           d="m 385.31,126.85 c 0.928,0.957 1.203,5.62 -1.55,4.622 -1.23,-1.59 0.92,-3.27 1.55,-4.62 z"
           inkscape:connector-curvature="0"
           style="fill:#ffffff;fill-opacity:1" />
        <path
           id="path5674"
           d="m 449.87,135.06 c 2.092,1.343 2.096,4.762 2.066,8.217 -2.4,-0.71 -4.56,-5.93 -2.07,-8.22 z"
           inkscape:connector-curvature="0"
           style="fill:#ffffff;fill-opacity:1" />
        <path
           id="path5676"
           d="m 596.04,137.12 c -0.494,1.393 -0.226,3.54 -2.584,3.082 -0.435,-0.597 -0.68,-1.377 -0.516,-2.569 1.22,0.01 1.52,-0.88 3.1,-0.51 z"
           inkscape:connector-curvature="0"
           style="fill:#ffffff;fill-opacity:1" />
        <path
           id="path5678"
           d="m 286.14,144.31 c 2.266,2.71 4.119,5.833 3.615,11.298 -3.56,-1.43 -2.71,-7.24 -3.62,-11.3 z"
           inkscape:connector-curvature="0"
           style="fill:#ffffff;fill-opacity:1" />
        <path
           id="path5680"
           d="m 383.24,156.12 c 0.218,-1.143 2.741,-0.402 3.101,0 0.102,1.469 0.064,2.802 -1.551,2.567 0.25,-1.61 -0.64,-2.1 -1.55,-2.57 z"
           inkscape:connector-curvature="0"
           style="fill:#ffffff;fill-opacity:1" />
        <path
           id="path5682"
           d="m 282.52,160.74 c 2.63,-2.269 5.66,1.676 3.616,4.109 -2.53,-0.06 -1.63,-3.52 -3.62,-4.11 z"
           inkscape:connector-curvature="0"
           style="fill:#ffffff;fill-opacity:1" />
        <path
           id="path5684"
           d="m 223.64,162.8 c 2.926,0.343 5.529,1.007 5.682,4.109 -3.51,0.24 -5.05,-1.48 -5.68,-4.11 z"
           inkscape:connector-curvature="0"
           style="fill:#ffffff;fill-opacity:1" />
        <path
           id="path5686"
           d="m 222.1,170.5 c 0.217,-1.144 2.74,-0.402 3.099,0 -0.22,1.14 -2.75,0.4 -3.1,0 z"
           inkscape:connector-curvature="0"
           style="fill:#ffffff;fill-opacity:1" />
        <path
           id="path5688"
           d="m 388.92,179.74 c -1.273,0.068 -2.488,0.077 -3.1,-0.514 0.42,-1.16 3.47,-1.69 3.1,0.51 z"
           inkscape:connector-curvature="0"
           style="fill:#ffffff;fill-opacity:1" />
        <path
           id="path5690"
           d="m 449.35,182.31 c 1.779,0.628 1.32,3.481 3.1,4.109 -1.38,1 -3.74,-1.39 -3.1,-4.11 z"
           inkscape:connector-curvature="0"
           style="fill:#ffffff;fill-opacity:1" />
        <path
           id="path5692"
           d="m 583.64,191.04 c 1.287,0.26 3.114,-0.018 3.097,1.54 -1.54,-0.01 -3.14,0.05 -3.1,-1.54 z"
           inkscape:connector-curvature="0"
           style="fill:#ffffff;fill-opacity:1" />
        <path
           id="path5694"
           d="m 446.26,199.77 c -0.496,2.247 -2.115,3.375 -1.551,6.675 -1.285,-0.776 -2.361,-1.76 -2.582,-3.595 1.17,-1.21 1.87,-2.91 4.13,-3.07 z"
           inkscape:connector-curvature="0"
           style="fill:#ffffff;fill-opacity:1" />
        <path
           id="path5696"
           d="m 691.59,200.8 c 1.36,-0.155 1.695,0.711 1.551,2.054 -1.36,0.16 -1.69,-0.71 -1.55,-2.05 z"
           inkscape:connector-curvature="0"
           style="fill:#ffffff;fill-opacity:1" />
        <path
           id="path5698"
           d="m 713.8,203.37 c -1.227,1.518 -6.003,-0.49 -7.231,1.027 -1.25,-3.18 5.92,-4.1 7.23,-1.03 z"
           inkscape:connector-curvature="0"
           style="fill:#ffffff;fill-opacity:1" />
        <path
           id="path5700"
           d="m 524.24,201.83 c 0.556,1.333 2.247,1.533 2.583,3.083 -1.459,-0.426 -1.338,0.723 -2.583,0.513 -1.02,-0.97 -0.24,-2.42 0,-3.59 z"
           inkscape:connector-curvature="0"
           style="fill:#ffffff;fill-opacity:1" />
        <path
           id="path5702"
           d="m 672.48,207.99 c 1.104,0.322 0.486,3.161 0,3.595 -1.284,0.08 -1.599,-0.807 -2.583,-1.027 1.07,-0.64 2.1,-1.32 2.58,-2.56 z"
           inkscape:connector-curvature="0"
           style="fill:#ffffff;fill-opacity:1" />
        <path
           id="path5704"
           d="m 388.92,218.26 c 1.578,-0.371 1.883,0.525 3.1,0.514 0.375,1.401 -1.027,1.033 -1.034,2.054 -1.45,-0.09 -2.2,-0.89 -2.07,-2.56 z"
           inkscape:connector-curvature="0"
           style="fill:#ffffff;fill-opacity:1" />
        <path
           id="path5706"
           d="m 662.15,226.48 c 1.82,0.727 1.629,2.822 0.516,4.108 -1.684,0.134 -2.484,-0.609 -2.582,-2.053 1.61,0.23 2.3,-0.46 2.06,-2.06 z"
           inkscape:connector-curvature="0"
           style="fill:#ffffff;fill-opacity:1" />
        <path
           id="path5708"
           d="m 520.12,232.12 c 0.938,0.702 2.099,4.873 -0.518,4.622 -0.16,-1.86 0.08,-3.34 0.52,-4.62 z"
           inkscape:connector-curvature="0"
           style="fill:#ffffff;fill-opacity:1" />
        <path
           id="path5710"
           d="m 244.82,237.78 c 0.125,-0.743 4.251,-1.193 3.616,0.514 -1.68,0.29 -2.41,-0.35 -3.62,-0.51 z"
           inkscape:connector-curvature="0"
           style="fill:#ffffff;fill-opacity:1" />
        <path
           id="path5712"
           d="m 653.37,240.86 c 1.867,-0.487 0.721,2.024 1.033,3.081 -1.86,0.48 -0.72,-2.02 -1.03,-3.08 z"
           inkscape:connector-curvature="0"
           style="fill:#ffffff;fill-opacity:1" />
        <path
           id="path5714"
           d="m 566.6,246.5 c 1.537,-0.108 1.82,1.832 1.033,2.568 -1.13,-0.07 -1.11,-1.29 -1.03,-2.57 z"
           inkscape:connector-curvature="0"
           style="fill:#ffffff;fill-opacity:1" />
        <path
           id="path5716"
           d="m 382.73,247.53 c 0.218,-1.143 2.741,-0.402 3.099,0 -0.42,1.9 -2.13,0.43 -3.1,0 z"
           inkscape:connector-curvature="0"
           style="fill:#ffffff;fill-opacity:1" />
        <path
           id="path5718"
           d="m 563.5,250.61 c 0.871,0.733 1.164,5.236 -1.034,4.622 -0.91,-1.76 0.09,-3.31 1.03,-4.62 z"
           inkscape:connector-curvature="0"
           style="fill:#ffffff;fill-opacity:1" />
        <path
           id="path5720"
           d="m 392.02,256.26 c -1.426,1.836 -3.414,3.111 -6.715,3.082 -4.02,-5.41 4.44,-7.06 6.72,-3.08 z"
           inkscape:connector-curvature="0"
           style="fill:#ffffff;fill-opacity:1" />
        <path
           id="path5722"
           d="m 496.87,270.13 c 1.414,0.011 1.225,2.423 0.516,3.082 -1.59,0.383 -0.993,-1.409 -2.582,-1.028 0.32,-1.04 2.61,-0.14 2.06,-2.05 z"
           inkscape:connector-curvature="0"
           style="fill:#ffffff;fill-opacity:1" />
        <path
           id="path5724"
           d="m 649.24,275.26 c 1.814,-0.278 -0.379,3.395 1.031,4.622 -1.283,0.08 -1.599,-0.807 -2.582,-1.027 -0.23,-1.93 1.02,-2.4 1.55,-3.59 z"
           inkscape:connector-curvature="0"
           style="fill:#ffffff;fill-opacity:1" />
        <path
           id="path5726"
           d="m 688.49,291.7 c 1.011,-0.542 2.594,0 4.649,-0.514 0.078,1.279 -0.813,1.59 -1.033,2.568 -2.32,0.41 -2.31,-1.48 -3.62,-2.06 z"
           inkscape:connector-curvature="0"
           style="fill:#ffffff;fill-opacity:1" />
        <path
           id="path5728"
           d="m 684.88,293.24 c 0.867,0.744 1.514,3.058 0.518,4.11 -1.82,-0.29 -0.83,-2.98 -0.52,-4.11 z"
           inkscape:connector-curvature="0"
           style="fill:#ffffff;fill-opacity:1" />
        <path
           id="path5730"
           d="m 552.65,293.75 v 2.568 c -0.611,0.591 -1.826,0.582 -3.1,0.514 1.27,-0.8 1.5,-2.62 3.1,-3.08 z"
           inkscape:connector-curvature="0"
           style="fill:#ffffff;fill-opacity:1" />
        <path
           id="path5732"
           d="m 541.81,300.94 c 1.039,0.574 0.595,3.973 0,4.623 -1.28,-0.81 -0.21,-3.59 0,-4.62 z"
           inkscape:connector-curvature="0"
           style="fill:#ffffff;fill-opacity:1" />
        <path
           id="path5734"
           d="m 278.39,308.13 c -1.294,2.308 -2.695,4.51 -3.099,7.703 -2.406,-2.229 -5.88,-3.398 -6.198,-7.703 2.62,2.92 5.74,-2.28 9.3,0 z"
           inkscape:connector-curvature="0"
           style="fill:#ffffff;fill-opacity:1" />
        <path
           id="path5736"
           d="m 532.51,309.16 c 0.167,1.191 -0.081,1.972 -0.516,2.568 -1.53,-0.05 -1.38,-3.07 0.52,-2.57 z"
           inkscape:connector-curvature="0"
           style="fill:#ffffff;fill-opacity:1" />
        <path
           id="path5738"
           d="m 689.01,318.4 c -0.474,0.897 -1.614,1.134 -3.099,1.027 -0.49,-1.86 2.03,-0.72 3.1,-1.03 z"
           inkscape:connector-curvature="0"
           style="fill:#ffffff;fill-opacity:1" />
        <path
           id="path5740"
           d="m 675.06,325.08 c 1.164,0.409 1.702,3.443 -0.516,3.081 -1.1,-1.05 0.15,-2.03 0.52,-3.08 z"
           inkscape:connector-curvature="0"
           style="fill:#ffffff;fill-opacity:1" />
        <path
           id="path5742"
           d="m 309.38,330.73 c 1.128,0.076 1.109,1.293 1.033,2.568 -1.58,-0.374 -1.52,0.886 -3.1,0.513 0.46,-1.27 2.29,-1.15 2.07,-3.08 z"
           inkscape:connector-curvature="0"
           style="fill:#ffffff;fill-opacity:1" />
        <path
           id="path5744"
           d="m 617.22,334.32 c -0.01,1.493 -2.92,1.215 -3.615,0.514 0.72,-0.78 2.67,-1.45 3.62,-0.51 z"
           inkscape:connector-curvature="0"
           style="fill:#ffffff;fill-opacity:1" />
        <path
           id="path5746"
           d="m 673.52,336.38 c 1.129,0.076 1.107,1.293 1.033,2.567 -0.73,0.776 -2.51,1.623 -3.617,0.514 0.82,-1.07 2.78,-1.01 2.59,-3.08 z"
           inkscape:connector-curvature="0"
           style="fill:#ffffff;fill-opacity:1" />
        <path
           id="path5748"
           d="m 384.79,350.76 c 1.686,1.058 -1.938,7.308 -4.648,5.649 1.99,-1.45 3.08,-3.79 4.65,-5.65 z"
           inkscape:connector-curvature="0"
           style="fill:#ffffff;fill-opacity:1" />
        <path
           id="path5750"
           d="m 598.62,358.46 c 1.258,1.858 -2.789,7.089 -3.615,10.272 -0.55,-3.13 2.36,-7.24 3.62,-10.27 z"
           inkscape:connector-curvature="0"
           style="fill:#ffffff;fill-opacity:1" />
        <path
           id="path5752"
           d="m 278.91,368.22 c 3.023,0.588 4.91,2.307 5.681,5.137 -3.53,-0.09 -4.97,-2.25 -5.68,-5.14 z"
           inkscape:connector-curvature="0"
           style="fill:#ffffff;fill-opacity:1" />
        <path
           id="path5754"
           d="m 637.88,379.52 c 1.12,-0.087 0.235,1.822 0.516,2.567 h -3.099 c 0.45,-1.26 2.88,-0.56 2.58,-2.57 z"
           inkscape:connector-curvature="0"
           style="fill:#ffffff;fill-opacity:1" />
        <path
           id="path5756"
           d="m 586.23,391.33 c -0.458,0.913 -1.44,1.307 -1.032,3.082 -1.74,-0.2 -1.39,-3.98 1.03,-3.08 z"
           inkscape:connector-curvature="0"
           style="fill:#ffffff;fill-opacity:1" />
        <path
           id="path5758"
           d="m 520.63,400.06 c 1.273,-1.397 3.676,0.426 4.648,1.028 0.464,2.344 -0.859,2.91 -1.034,4.621 -1.31,-1.79 -0.72,-5.45 -3.62,-5.65 z"
           inkscape:connector-curvature="0"
           style="fill:#ffffff;fill-opacity:1" />
        <path
           id="path5760"
           d="m 50.617,406.73 h 5.166 c 0.15,2.546 -1.055,3.744 -3.616,3.595 -0.895,-0.82 -1.881,-1.55 -1.55,-3.59 z"
           inkscape:connector-curvature="0"
           style="fill:#ffffff;fill-opacity:1" />
        <path
           id="path5762"
           d="m 539.74,408.79 c 0.979,-1.434 3.306,0.095 4.13,0.514 -0.78,2.28 -3.35,0.29 -4.13,-0.51 z"
           inkscape:connector-curvature="0"
           style="fill:#ffffff;fill-opacity:1" />
        <path
           id="path5764"
           d="m 586.74,409.81 c 2.274,-2.059 2.661,2.129 5.167,1.542 -2.01,1.81 -4.07,-0.72 -5.17,-1.54 z"
           inkscape:connector-curvature="0"
           style="fill:#ffffff;fill-opacity:1" />
        <path
           id="path5766"
           d="m 69.727,420.6 c 3.595,-1.155 5.179,-0.86 7.748,1.027 -0.064,1.134 -2.191,0.217 -3.099,0.513 0.835,2.835 3.36,2.509 5.682,1.542 2.496,4.363 7.041,6.691 11.879,8.729 1.109,2.15 1.714,4.801 5.682,4.109 0.145,-1.344 -0.188,-2.21 -1.549,-2.055 2.945,-1.885 4.716,1.803 6.198,3.082 -0.296,1.245 -3.341,-0.242 -3.099,1.541 0.588,2.349 3.986,-0.125 4.132,0.512 -1.021,4.496 2.749,4.97 5.165,7.704 5.043,5.711 3.459,11.951 10.847,13.353 -1.609,7.114 3.729,10.739 4.132,17.462 0.432,7.201 -6.05,15.243 0,20.026 -0.433,1.111 -1.337,1.752 -1.033,3.597 1.417,5.61 8.585,5.5 10.847,10.269 2.559,-1.258 5.282,0.146 8.264,0 1.054,-1.081 -1.4,-3.032 -0.517,-5.646 2.322,0.215 3.272,2.678 1.033,3.595 3.623,1.607 5.166,6.883 4.648,11.297 -0.914,7.794 10.473,8.07 8.265,15.92 -0.626,2.224 -3.693,3.646 -6.198,3.594 0.263,-2.819 2.973,-3.206 3.615,-5.648 -0.753,-3.188 -3.378,-4.514 -5.681,-6.161 0.352,1.877 0.72,3.732 0.517,6.161 -1.317,5.635 -9.198,4.111 -15.495,7.703 -4.234,2.417 -3.438,6.317 -8.78,6.676 -0.083,-0.601 -0.941,-0.432 -1.55,-0.512 -1.167,-2.433 -3.006,-4.199 -5.681,-5.137 -3.857,-9.687 -18.558,-8.595 -22.209,-18.487 -3.305,-0.153 -8.545,-5.752 -9.813,-1.54 3.344,1.126 7.771,1.175 6.715,6.678 -2.956,-3.639 -9.866,-5.204 -14.979,-2.57 -3.521,-1.463 -4.533,-5.422 -8.78,-6.162 4.853,-3.123 6.499,2.668 10.845,3.083 -1.106,-2.898 -4.067,-8.237 -7.23,-10.787 -2.287,-0.561 -2.568,0.87 -4.133,1.027 0.697,-4.839 -3.125,-7.212 -7.229,-5.649 C 57.1,499.24 49.149,495.162 41.325,490.96 c -2.132,0.105 -0.6,3.854 -3.615,3.081 0.033,-3.387 0.438,-4.111 0,-7.188 -0.133,-1.068 -2.27,-0.144 -2.583,-1.028 -0.087,-2.165 -2.479,-2.598 -0.517,-4.108 -2.123,-5.078 -7.473,-6.949 -8.263,-13.354 -10.086,1.072 -13.279,-15.884 -21.693,-8.217 0.205,3.048 3.39,3.135 6.198,3.595 -5.632,3.989 -12.294,-5.567 -6.715,-9.756 -1.826,-0.901 -2.661,1.724 -3.099,0.513 -0.853,-14.717 -1.298,-28.478 7.23,-36.461 0.855,0.519 0.561,2.181 1.033,3.081 8.507,-7.295 17.349,-13.046 30.474,-11.3 5.348,0.713 9.558,4.783 14.461,5.649 6.654,1.22 11.96,0.41 15.5,5.18 z"
           inkscape:connector-curvature="0"
           style="fill:#ffffff;fill-opacity:1" />
        <path
           id="path5768"
           d="m 554.72,412.38 c -0.988,-0.218 -2.223,-0.187 -2.066,-1.542 1.46,-0.52 2.2,-0.58 2.07,1.54 z"
           inkscape:connector-curvature="0"
           style="fill:#ffffff;fill-opacity:1" />
        <path
           id="path5770"
           d="m 0,414.44 v -0.515 c 2.359,0.051 5.239,-0.415 6.198,1.027 -1.021,2.97 -5.108,0.93 -6.198,-0.51 z"
           inkscape:connector-curvature="0"
           style="fill:#ffffff;fill-opacity:1" />
        <path
           id="path5772"
           d="m 278.91,414.95 c 0.742,0.802 1.3,1.787 2.582,2.056 -0.076,1.121 -1.302,1.1 -2.582,1.026 -0.71,-0.67 -0.71,-2.43 0,-3.09 z"
           inkscape:connector-curvature="0"
           style="fill:#ffffff;fill-opacity:1" />
        <path
           id="path5774"
           d="m 80.574,417.01 c 3.36,-1.793 5.729,3.057 3.615,5.648 -1.992,-1.11 -1.167,-5.01 -3.615,-5.65 z"
           inkscape:connector-curvature="0"
           style="fill:#ffffff;fill-opacity:1" />
        <path
           id="path5776"
           d="m 559.88,416.49 c 1.867,-0.486 0.721,2.023 1.033,3.082 -1.31,-0.06 -1.02,-1.72 -1.03,-3.08 z"
           inkscape:connector-curvature="0"
           style="fill:#ffffff;fill-opacity:1" />
        <path
           id="path5778"
           d="m 0,418.54 v -0.513 h 2.583 c 0.164,1.19 -0.084,1.971 -0.517,2.567 -1.921,0.54 -1.013,-1.73 -2.066,-2.06 z"
           inkscape:connector-curvature="0"
           style="fill:#ffffff;fill-opacity:1" />
        <path
           id="path5780"
           d="m 284.59,437.55 c 1.319,0.057 1.025,1.719 1.033,3.08 -1.86,0.48 -0.72,-2.03 -1.03,-3.08 z"
           inkscape:connector-curvature="0"
           style="fill:#ffffff;fill-opacity:1" />
        <path
           id="path5782"
           d="m 277.36,451.93 c 1.415,0.01 1.227,2.423 0.517,3.082 -1.14,-0.07 -0.22,-2.18 -0.52,-3.08 z"
           inkscape:connector-curvature="0"
           style="fill:#ffffff;fill-opacity:1" />
        <path
           id="path5784"
           d="m 584.16,458.6 c 0.643,-0.936 4.787,-1.027 4.133,1.027 -1.38,1.23 -2.74,-0.69 -4.13,-1.03 z"
           inkscape:connector-curvature="0"
           style="fill:#ffffff;fill-opacity:1" />
        <path
           id="path5786"
           d="m 284.59,472.98 c -1.052,1.177 -4.289,0.185 -6.198,0.513 0.34,-2.85 5.17,-2.42 6.2,-0.51 z"
           inkscape:connector-curvature="0"
           style="fill:#ffffff;fill-opacity:1" />
        <path
           id="path5788"
           d="m 413.2,476.57 c -1.579,0.375 -1.883,-0.524 -3.1,-0.512 0.47,-1.21 2.96,-1.19 3.1,0.51 z"
           inkscape:connector-curvature="0"
           style="fill:#ffffff;fill-opacity:1" />
        <path
           id="path5790"
           d="m 253.08,478.12 c 0.986,0.218 0.935,1.465 2.582,1.025 -0.357,1.014 -1.378,1.369 -2.582,1.541 -0.05,-1.27 -0.96,-1.59 0,-2.56 z"
           inkscape:connector-curvature="0"
           style="fill:#ffffff;fill-opacity:1" />
        <path
           id="path5792"
           d="m 430.76,481.71 c 4.361,0.607 2.432,6.668 -1.55,6.161 -0.3,-2.86 0.24,-4.9 1.55,-6.16 z"
           inkscape:connector-curvature="0"
           style="fill:#ffffff;fill-opacity:1" />
        <path
           id="path5794"
           d="m 255.67,483.77 c 1.578,-0.371 1.883,0.523 3.1,0.513 -0.069,1.644 -1.171,2.26 -3.1,2.054 v -2.56 z"
           inkscape:connector-curvature="0"
           style="fill:#ffffff;fill-opacity:1" />
        <path
           id="path5796"
           d="m 586.74,485.31 c -0.581,0.619 -1.472,0.93 -1.032,2.566 -0.755,-0.446 -1.998,-0.405 -1.549,-2.053 0.6,-0.44 1.38,-0.69 2.58,-0.52 z"
           inkscape:connector-curvature="0"
           style="fill:#ffffff;fill-opacity:1" />
        <path
           id="path5798"
           d="m 426.63,487.36 c 0.74,0.634 0.979,1.766 1.031,3.082 -2.22,0.18 -1.4,-1.87 -1.03,-3.08 z"
           inkscape:connector-curvature="0"
           style="fill:#ffffff;fill-opacity:1" />
        <path
           id="path5800"
           d="m 419.4,493.52 c 2.018,-0.334 0.82,3.031 -0.516,2.569 -0.42,-1.45 0.73,-1.33 0.52,-2.57 z"
           inkscape:connector-curvature="0"
           style="fill:#ffffff;fill-opacity:1" />
        <path
           id="path5802"
           d="m 126.54,494.55 c 1.895,-0.33 6.607,0.954 6.715,4.108 -3.5,1.78 -4.67,-2.79 -6.72,-4.11 z"
           inkscape:connector-curvature="0"
           style="fill:#ffffff;fill-opacity:1" />
        <path
           id="path5804"
           d="m 254.12,497.63 h 1.549 c 1.062,0.827 1.198,2.574 1.033,4.621 -1.88,-0.52 -2.31,-2.49 -2.58,-4.62 z"
           inkscape:connector-curvature="0"
           style="fill:#ffffff;fill-opacity:1" />
        <path
           id="path5806"
           d="m 355.87,500.71 c 4.57,-0.267 5.435,3.153 5.682,7.189 -3.54,-0.76 -4.82,-3.77 -5.68,-7.19 z"
           inkscape:connector-curvature="0"
           style="fill:#ffffff;fill-opacity:1" />
        <path
           id="path5808"
           d="m 366.2,500.71 c 0.914,0.46 1.508,1.238 2.585,1.54 -0.45,0.751 -0.773,1.627 -2.068,1.54 -0.59,-0.6 -0.58,-1.81 -0.51,-3.08 z"
           inkscape:connector-curvature="0"
           style="fill:#ffffff;fill-opacity:1" />
        <path
           id="path5810"
           d="m 133.77,504.31 c 0.064,-1.136 2.191,-0.221 3.099,-0.516 -0.01,1.41 -2.43,1.23 -3.1,0.52 z"
           inkscape:connector-curvature="0"
           style="fill:#ffffff;fill-opacity:1" />
        <path
           id="path5812"
           d="m 428.69,506.36 c -0.172,1.882 -2.048,2.072 -1.55,4.623 -1.331,-0.393 -1.795,-1.643 -1.549,-3.596 1.09,-0.29 1.48,-1.26 3.1,-1.02 z"
           inkscape:connector-curvature="0"
           style="fill:#ffffff;fill-opacity:1" />
        <path
           id="path5814"
           d="m 92.453,538.72 c 1.041,2.189 3.759,3.175 6.715,2.052 -0.358,4.96 -9.252,1.83 -6.715,-2.05 z"
           inkscape:connector-curvature="0"
           style="fill:#ffffff;fill-opacity:1" />
        <path
           id="path5816"
           d="m 232.42,540.26 c 1.61,0.626 3.079,1.391 2.582,4.108 -2.49,0.25 -2.62,-1.84 -2.58,-4.11 z"
           inkscape:connector-curvature="0"
           style="fill:#ffffff;fill-opacity:1" />
        <path
           id="path5818"
           d="m 575.38,541.28 c 0.08,2.306 -2.322,2.144 -4.651,2.056 0.76,-1.37 2.79,-3.4 4.65,-2.06 z"
           inkscape:connector-curvature="0"
           style="fill:#ffffff;fill-opacity:1" />
        <path
           id="path5820"
           d="m 115.18,549.5 c -4.146,1.718 -4.686,-4.579 -8.78,-4.621 2.38,-6.37 6.42,2.95 8.78,4.62 z"
           inkscape:connector-curvature="0"
           style="fill:#ffffff;fill-opacity:1" />
        <path
           id="path5822"
           d="m 191.62,544.36 c 1.046,0.99 1.202,2.067 0.517,3.596 -0.949,-0.598 -0.358,-2.727 -2.582,-2.055 -0.16,-1.35 1.07,-1.32 2.06,-1.54 z"
           inkscape:connector-curvature="0"
           style="fill:#ffffff;fill-opacity:1" />
        <path
           id="path5824"
           d="m 137.9,547.96 c -0.814,1.619 -4.985,1.443 -4.648,-1.027 1.62,-1.35 3.23,0.6 4.65,1.03 z"
           inkscape:connector-curvature="0"
           style="fill:#ffffff;fill-opacity:1" />
        <path
           id="path5826"
           d="m 153.92,546.93 c 0.616,1.532 0.141,1.746 -0.517,3.082 -1.623,0.243 -1.365,-1.383 -2.583,-1.541 0.47,-1.07 1.52,-1.56 3.1,-1.54 z"
           inkscape:connector-curvature="0"
           style="fill:#ffffff;fill-opacity:1" />
        <path
           id="path5828"
           d="m 144.1,547.44 c 1.857,0.363 0.726,2.409 0,3.082 -1.792,0.413 -1.985,-0.765 -3.616,-0.513 0.62,-1.44 2.55,-1.58 3.62,-2.57 z"
           inkscape:connector-curvature="0"
           style="fill:#ffffff;fill-opacity:1" />
        <path
           id="path5830"
           d="m 569.7,547.44 c 2.989,0.298 1.978,3.985 0.516,5.137 -1.18,-0.71 -0.2,-3.57 -0.52,-5.14 z"
           inkscape:connector-curvature="0"
           style="fill:#ffffff;fill-opacity:1" />
        <path
           id="path5832"
           d="m 194.2,550.02 c 1.088,0.42 1.417,2.707 0.516,3.595 -1.16,-0.23 -0.21,-2.54 -0.52,-3.6 z"
           inkscape:connector-curvature="0"
           style="fill:#ffffff;fill-opacity:1" />
        <path
           id="path5834"
           d="m 376.01,552.58 c 4.929,-1.472 5.682,5.646 7.229,9.245 -5.41,-0.09 -4.17,-6.8 -7.23,-9.24 z"
           inkscape:connector-curvature="0"
           style="fill:#ffffff;fill-opacity:1" />
        <path
           id="path5836"
           d="m 394.6,562.85 c 0.007,-0.784 3.828,-1.126 3.1,0.514 -1.27,0.07 -2.48,0.08 -3.1,-0.51 z"
           inkscape:connector-curvature="0"
           style="fill:#ffffff;fill-opacity:1" />
        <path
           id="path5838"
           d="m 393.57,566.96 c -3.09,0.353 -4.319,2.553 -6.715,3.595 -0.518,-1.023 -2.283,-0.81 -2.066,-2.566 2.13,-1.49 6.49,-4.21 8.78,-1.03 z"
           inkscape:connector-curvature="0"
           style="fill:#ffffff;fill-opacity:1" />
        <path
           id="path5840"
           d="m 161.15,577.75 h 2.583 c 0.165,1.189 -0.083,1.972 -0.517,2.567 -0.88,-0.67 -2.03,-1.07 -2.06,-2.57 z"
           inkscape:connector-curvature="0"
           style="fill:#ffffff;fill-opacity:1" />
        <path
           id="path5842"
           d="m 414.75,579.8 c 1.456,-1.084 5.771,-0.624 5.679,1.541 -2.19,1.54 -4.45,-0.5 -5.68,-1.54 z"
           inkscape:connector-curvature="0"
           style="fill:#ffffff;fill-opacity:1" />
        <path
           id="path5844"
           d="m 185.94,614.72 h 2.066 c 0.219,1.073 -0.354,1.358 -0.517,2.055 -0.76,-0.45 -1.64,-0.77 -1.55,-2.06 z"
           inkscape:connector-curvature="0"
           style="fill:#ffffff;fill-opacity:1" />
        <path
           id="path5846"
           d="m 209.7,633.21 c 0.409,1.779 -0.573,2.169 -1.032,3.083 -1.168,-0.208 0.272,-3.01 -2.066,-2.055 0.06,-1.31 1.73,-1.02 3.1,-1.03 z"
           inkscape:connector-curvature="0"
           style="fill:#ffffff;fill-opacity:1" />
        <path
           id="path5848"
           d="m 544.39,653.24 c 1.219,0.157 0.961,1.781 2.582,1.539 -0.439,0.762 -1.3,1.104 -2.582,1.027 v -2.57 z"
           inkscape:connector-curvature="0"
           style="fill:#ffffff;fill-opacity:1" />
        <path
           id="path5850"
           d="m 230.36,657.35 c 0.91,0.464 0.854,1.891 2.066,2.053 0.087,1.117 -1.833,0.234 -2.583,0.514 -0.17,-1.19 0.07,-1.97 0.51,-2.56 z"
           inkscape:connector-curvature="0"
           style="fill:#ffffff;fill-opacity:1" />
        <path
           id="path5852"
           d="m 533.54,668.64 c 1.361,-0.155 1.695,0.711 1.551,2.056 -1.36,0.15 -1.69,-0.71 -1.55,-2.06 z"
           inkscape:connector-curvature="0"
           style="fill:#ffffff;fill-opacity:1" />
        <path
           id="path5854"
           d="m 530.96,675.32 c -0.086,-1.115 1.832,-0.233 2.582,-0.514 -0.084,0.597 0.115,0.913 0.518,1.027 -0.55,2.06 -2.71,0.53 -3.1,-0.52 z"
           inkscape:connector-curvature="0"
           style="fill:#ffffff;fill-opacity:1" />
        <path
           id="path5856"
           d="m 525.28,688.67 c -1.053,1.032 -1.012,-0.229 -2.065,-0.514 0.09,-1.49 2.45,-1.24 2.06,0.51 z"
           inkscape:connector-curvature="0"
           style="fill:#ffffff;fill-opacity:1" />
        <path
           id="path5858"
           d="m 251.02,691.75 c 2.359,1.106 0.028,5.036 -2.067,3.082 -0.22,-1.93 1.62,-1.81 2.07,-3.08 z"
           inkscape:connector-curvature="0"
           style="fill:#ffffff;fill-opacity:1" />
        <path
           id="path5860"
           d="m 279.43,710.76 c -0.7,-1.017 -1.039,-2.392 -2.582,-2.568 1.65,-2.49 4.95,0.79 2.58,2.57 z"
           inkscape:connector-curvature="0"
           style="fill:#ffffff;fill-opacity:1" />
        <path
           id="path5862"
           d="m 465.88,713.84 c 0.223,-1.147 2.545,-0.209 3.616,-0.513 -0.28,1.75 -2.49,0.78 -3.62,0.51 z"
           inkscape:connector-curvature="0"
           style="fill:#ffffff;fill-opacity:1" />
        <path
           id="path5864"
           d="m 332.62,720 h -2.065 c -0.163,-1.208 -2.448,-0.304 -2.067,-2.055 1.058,-0.794 4.625,-0.794 5.682,0 -0.15,1.05 -1.03,1.37 -1.55,2.06 z"
           inkscape:connector-curvature="0"
           style="fill:#ffffff;fill-opacity:1" />
        <path
           id="path5866"
           d="m 410.1,10.271 c 0.787,0.486 -1.24,2.5 -2.581,2.568 -0.01,-1.715 2.07,-1.361 2.58,-2.568 z"
           inkscape:connector-curvature="0"
           style="fill:#ffffff;fill-opacity:1" />
        <path
           id="path5868"
           d="m 459.17,19.002 c 2.741,0.361 3.891,6.741 5.682,9.757 -2.749,-1.548 -3.686,-4.895 -7.23,-5.648 0.584,-1.302 2.491,-1.29 2.064,-3.594 0.1,-0.438 -0.2,-0.485 -0.51,-0.515 z"
           inkscape:connector-curvature="0"
           style="fill:#ffffff;fill-opacity:1" />
        <path
           id="path5870"
           d="m 589.84,103.22 c 3.905,3.852 -2.475,8.125 -3.101,12.326 2.371,4.652 6.319,11.848 2.585,17.974 -0.928,-0.789 -0.416,-3.01 -2.066,-3.081 0.061,5.194 -2.357,7.926 -3.1,12.324 0.227,0.763 0.662,-0.202 1.549,0 -0.004,6.501 -6.59,6.458 -7.747,11.813 0.688,1.346 2.294,0.98 3.616,0.514 0.445,3.354 -2.863,2.973 -3.616,5.136 -1.2,-0.348 -1.383,-1.707 -2.581,-2.055 -1.798,1.809 -2.697,4.509 -4.651,6.163 1.351,-0.426 2.835,1.553 3.618,0 -0.665,4.119 -8.67,16.291 0.516,18.488 2.496,-5.339 -0.998,-17.139 7.748,-17.46 1.38,8.265 -5.154,13.404 -2.581,19.515 -5.583,13.213 -11.688,28.688 -13.431,42.625 -1.871,0.491 -0.525,-2.216 -1.549,-2.568 -2.557,2.986 -3.982,8.497 -3.1,13.353 0.538,0.542 3.688,1.06 4.133,0 0.309,2.884 -3.466,6.133 -7.748,6.163 0.172,1.883 2.047,2.074 1.549,4.622 -1.134,1.268 -2.705,2.102 -4.648,2.567 -0.297,3.205 1.197,4.629 2.584,6.163 -0.08,0.95 -1.75,0.316 -2.065,1.027 2.997,7.184 -0.28,15.843 -5.683,17.974 1.347,-3.135 7.149,-9.933 3.615,-16.434 -2.447,6.469 -4.174,13.654 -12.912,13.866 0.432,-2.997 -0.99,-4.151 -3.1,-4.622 -1.447,0.273 -0.955,2.474 -1.551,3.595 6.602,2.853 11.162,7.732 10.332,17.974 -6.071,2.525 -8.455,8.714 -11.363,14.38 -1.102,0.24 -0.984,-0.733 -1.033,-1.541 -4.691,3.895 -10.381,6.798 -17.561,8.218 -3.453,-2.729 -8,-4.374 -10.33,-8.218 -1.66,0.881 -1.236,5.162 0,6.163 -5.34,2.595 -10.179,-10.686 -4.132,-10.271 -1.917,-11.754 -2.851,-34.685 11.362,-30.299 5.164,-1.575 6.032,-4.949 6.197,-10.785 0.197,-6.837 4.977,-8.831 9.814,-12.84 -3.713,-3.41 -7.032,-8.383 -6.715,-14.893 0.17,-3.485 3.07,-6.55 3.615,-10.271 1.033,-7.064 -0.564,-14.527 3.615,-19.515 2.303,-2.746 5.871,-2.384 6.715,-6.162 -1.939,-6.226 -7.703,-9.239 -5.682,-17.976 -1.617,-0.238 -2.305,0.447 -2.066,2.054 -2.709,-3.285 4.512,-4.921 3.614,-9.757 -0.321,-1.219 -3.177,0.08 -3.614,-1.027 -0.78,-1.448 -1.247,-3.21 -1.033,-5.65 2.947,0.587 7.801,2.073 10.33,0 -0.684,-1.562 -2.592,-2.211 -4.131,-1.54 -0.158,-2.382 0.004,-4.445 1.033,-5.649 4.2,-0.069 3.912,4.326 6.197,6.163 h 4.133 c -2.184,-4.719 -6.133,-5.346 -7.748,-8.217 -2.045,-3.635 -0.646,-6.261 0,-11.298 0.194,-1.525 0.912,-3.635 1.033,-5.135 0.703,-8.738 -6.315,-16.2 -4.648,-26.191 0.951,-1.452 1.539,-3.263 2.582,-4.622 -0.127,-0.557 -1.027,-0.349 -1.033,-1.027 3.996,-10.406 4.943,-23.844 13.945,-29.273 0.063,-1.479 -0.281,-3.361 0.518,-4.108 0.666,-0.708 2.242,-0.509 3.615,-0.514 10.35,-13.966 41.612,-6.876 40.288,13.352 0.056,1.313 1.728,1.02 3.097,1.028 -0.329,2.39 -3.189,9.396 -0.516,9.757 0.49,3.309 -6.03,4.003 -6.73,7.758 z"
           inkscape:connector-curvature="0"
           style="fill:#ffffff;fill-opacity:1" />
        <path
           id="path5872"
           d="m 258.25,65.735 c 2.685,1.097 4.543,3.014 6.197,5.136 0.19,0.024 -6.47,-1.692 -6.2,-5.136 z"
           inkscape:connector-curvature="0"
           style="fill:#ffffff;fill-opacity:1" />
        <path
           id="path5874"
           d="m 382.73,220.31 c 0.1,-0.583 0.519,-0.285 0.516,0 1.2,-0.177 2.421,-0.332 2.067,-2.054 1.5,0.009 1.221,2.903 0.516,3.595 -2.01,0.44 -1.85,-1.26 -3.11,-1.55 z"
           inkscape:connector-curvature="0"
           style="fill:#ffffff;fill-opacity:1" />
        <path
           id="path5876"
           d="m 297.5,337.92 c -1.285,4.028 -6.44,4.21 -9.298,6.675 0.05,-3.22 5.35,-5.64 9.3,-6.68 z"
           inkscape:connector-curvature="0"
           style="fill:#ffffff;fill-opacity:1" />
        <path
           id="path5878"
           d="m 481.38,380.54 c 4.096,0.722 4.162,5.449 9.813,4.622 -0.186,1.868 -1.22,2.896 -3.099,3.082 0.535,1.862 1.615,3.187 3.099,4.107 1.946,-0.12 2.187,-1.935 4.132,-2.055 -0.459,1.086 -1.572,1.519 -1.548,3.082 14.539,-1.546 24.221,4.147 29.955,12.838 6.714,2.228 10.684,7.184 14.462,12.326 1.643,0.077 2.273,1.163 4.133,1.027 -0.486,2.709 1.575,2.886 2.582,4.109 9.184,1.396 17.092,-5.432 24.275,-1.027 1.029,-0.519 2.207,-0.888 2.582,-2.055 1.117,1.114 1.326,3.134 2.584,4.107 2.949,0.902 8.266,1.056 10.846,4.623 1.069,1.475 1.137,4.59 2.066,6.675 1.414,3.174 3.74,5.146 3.615,7.191 -0.344,5.591 -7.248,6.414 -10.845,9.757 -0.84,2.556 2.968,2.033 1.548,3.595 -1.93,0.549 -1.474,-1.274 -3.101,-1.027 0.54,7.897 -7.415,7.346 -10.845,11.298 1.699,1.538 5.189,1.75 7.748,1.027 2.068,-0.283 1.965,-3.294 2.064,-4.109 1.285,-0.077 1.6,0.809 2.585,1.028 0.55,2.774 -1.546,2.914 -3.101,3.594 0.885,1.004 0.896,2.874 1.548,4.108 -0.175,1.879 -1.767,2.351 -3.097,3.083 1.93,2.01 0.43,5.158 0.516,8.217 -9.799,4.377 -10.786,16.242 -8.264,29.271 -1.672,2.791 -4.712,4.219 -8.781,4.622 0.415,11.063 -9.707,26.965 0,34.408 0.815,-7.703 -0.714,-25.37 7.232,-29.271 -1.256,11.229 -1.061,20.803 -2.065,32.354 0.214,1.139 2.83,0.493 2.581,-0.514 -0.345,3.979 -1.894,13.384 4.648,13.352 -3.202,2.945 -6.232,-1.609 -8.264,-3.08 -3.568,1.76 -4.018,6.618 -4.648,11.296 1.457,0.925 3.418,-1.827 2.066,-4.107 5.129,2.486 0.08,6.768 -0.518,10.784 5.283,4.62 0.527,16.181 2.581,23.624 -6.708,-1.805 -1.993,-12.186 -3.097,-19.002 -4.029,0.787 -1.486,8.109 -3.614,10.785 -2.2,1.064 -4.101,2.431 -7.748,2.055 -0.767,3.471 1.938,2.699 3.099,3.08 -0.061,4.906 -5.342,4.618 -5.682,9.243 2.072,2.756 7.861,-0.605 10.331,1.028 0.214,2.592 -2.563,5.868 -3.101,10.784 -0.402,3.681 0.736,7.788 0,10.785 -0.72,2.925 -3.9,5.612 -5.682,9.757 -1.715,3.99 -2.996,8.115 -5.166,10.271 -5.309,5.28 -9.623,3.859 -10.846,13.354 -0.684,5.309 -4.066,8.611 -5.164,14.377 -4.857,-0.017 -4.817,3.656 -8.264,6.165 -0.83,0.604 -2.359,0.324 -3.1,1.027 -4.711,4.463 -6.747,13.657 -11.363,14.379 -5.051,0.792 -11.273,-6.96 -13.945,1.027 -3.928,-4.655 -11.279,-1.649 -14.463,1.539 -6.43,-2.882 -14.326,6.634 -18.076,-2.052 -2.68,-0.247 -6.41,0.551 -8.266,-0.515 -0.908,3.033 -1.352,6.527 -6.197,5.648 0.5,-2.864 -0.493,-7.104 -3.1,-8.215 -6.737,-2.873 -8.195,4.641 -12.395,7.187 -5.311,3.225 -13.727,-0.181 -18.594,0 -4.22,0.161 -8.143,4.011 -12.914,4.623 -1.932,0.249 -3.863,-0.398 -6.197,-0.513 -12.66,-0.612 -26.822,5.054 -35.639,1.027 -3.431,0.696 -4.987,3.257 -7.747,4.622 -4.564,-5.048 -17.936,-1.339 -21.693,-7.19 -10.874,7.231 -23.78,-1.956 -33.056,-5.647 -1.218,0.14 0.048,1.912 0.517,2.054 -3.57,-0.275 -4.321,-4.169 -7.231,-5.648 -1.422,-0.725 -3.18,-0.27 -4.648,-1.027 -1.889,-0.976 -3.862,-3.202 -6.197,-4.622 -7.302,-4.445 -9.63,-9.209 -16.528,-14.894 -3.462,-2.854 -4.214,-5.721 -9.813,-6.162 1.077,-2.183 2.377,-4.142 2.582,-7.19 -1.228,-2.031 -3.877,-0.344 -5.681,0 -5.504,-2.382 -4.311,-9.668 -8.782,-12.839 -5.697,-4.042 -12.106,-5.008 -16.527,-10.785 -4.304,-5.622 -7.099,-10.605 -8.781,-20.028 -1.929,-0.046 -1.472,-0.577 -3.099,0 -0.817,1.129 3.456,2.732 1.55,5.135 -9.399,-10.777 -23.732,-16.141 -29.44,-31.326 -1.392,-3.702 -0.469,-7.93 -3.1,-12.326 2.533,-4.239 0.388,-11.752 -5.165,-9.243 3.853,-3.875 14.149,-5.787 11.363,-17.973 -0.383,-2.015 -2.334,-2.473 -3.615,-3.597 0.105,-1.605 -0.349,-3.77 0.517,-4.619 2.582,-0.418 5.758,2.556 7.23,0 1.511,1.869 -3.072,2.06 -2.065,5.133 8.899,1.765 20.878,0.469 21.692,10.272 5.373,-3.32 7.599,1.801 12.913,1.54 -0.098,-3.154 -3.417,-3.107 -4.132,-5.649 2.12,-1.565 6.4,-6.199 9.813,-3.08 0.591,2.982 -4.356,0.461 -4.132,3.08 -0.593,1.367 0.174,5.114 2.066,5.649 10.199,-0.129 6.37,-14.207 15.495,-15.406 2.918,1.81 9.105,4.369 9.813,-1.027 -2.107,-1.843 -7.365,-0.552 -10.33,-1.54 0.807,-0.739 1.798,-1.295 2.066,-2.569 -0.939,-7.071 -1.643,-13.92 3.616,-16.944 0.985,-5.707 -0.505,-8.87 4.648,-11.3 1.804,0.775 1.896,3.251 3.099,4.622 6.533,2.016 6.621,-4.511 10.847,-7.189 2.608,-1.655 5.256,-0.615 4.649,-5.136 -4.911,-3.818 -7.815,2.691 -12.913,2.054 -1.446,-5.376 4.244,-7.639 6.714,-10.786 1.43,-4.491 -3.575,-6.766 -3.099,-10.784 0.534,-4.506 5.884,-5.107 10.33,-7.188 0.821,-2.536 -1.511,-3.484 -0.517,-4.621 3.769,3.177 13.45,4.625 17.561,0.513 -1.08,-2.917 -8.52,-1.679 -9.297,0.515 -0.511,-7.708 11.315,-3.186 17.562,-3.081 0.711,-0.664 0.511,-2.231 0.516,-3.596 -1.644,-1.738 -2.613,3.593 -4.648,1.54 0.301,-1.585 1.868,-1.909 3.1,-2.567 -0.068,-12.347 2.507,-19.385 12.396,-17.975 2.979,0.425 7.325,5.111 9.297,0.515 -3.707,-4.702 -5.362,-11.444 -11.362,-13.866 -4.224,-6.929 -9.715,-12.596 -12.913,-20.542 -11.216,-6.663 -3.935,-18.61 -5.681,-28.246 -0.343,-1.89 -0.175,-3.764 0,-5.135 0.715,-5.63 7.146,-9.671 7.23,-11.299 0.092,-1.788 -5.16,-4.697 -5.682,-7.19 -0.902,-4.317 3.338,-9.445 3.1,-12.325 -0.171,-2.055 -1.855,-2.967 -2.583,-5.134 3.618,-8.216 16.03,-7.687 25.309,-10.272 0.229,-2.283 -4.481,0.347 -4.132,-2.054 0.521,-1.022 1.92,-1.172 2.582,-2.054 3.118,2.034 5.672,4.631 9.297,6.162 1.352,-0.711 0.781,-3.332 2.066,-4.108 3.552,0.577 4.224,4.017 8.264,4.108 -0.23,2.284 0.368,3.744 1.034,5.136 3.979,-1.284 8.529,1.694 13.429,-1.026 1.142,0.063 0.22,2.178 0.517,3.081 4.486,-1.017 5.377,-5.61 11.879,-4.622 6.301,8.8 18.688,11.548 26.858,18.489 3.91,-0.096 5.83,-2.729 8.264,-4.623 2.87,-2.234 5.113,-2.638 8.782,-4.108 2.276,-0.914 4.554,-3.167 7.748,-3.595 7.163,-0.96 11.116,4.436 17.044,5.649 11.807,2.419 29.34,-3.035 27.891,13.353 5.748,1.615 9.318,-2.94 13.428,-4.622 0.64,4.571 -1.293,6.589 -4.648,7.191 3.637,4.051 8.904,16.189 16.012,8.729 -1.197,-2.277 -5.682,-1.078 -8.264,-0.513 1.97,-6.16 9.44,1.99 12.88,-2.05 z M 354.32,357.43 c 2.379,0.714 5.578,1.58 7.231,-0.513 -1.9,-1.99 -6.77,-4.27 -7.23,0.51 z m -10.33,31.33 c 3.321,1.32 3.741,5.524 7.231,6.677 5.58,-4.24 -3.3,-12.17 -7.23,-6.68 z m -11.37,2.57 c -0.157,1.185 1.494,0.571 1.55,1.542 2.479,-0.276 4.376,-1.129 4.648,-3.597 -2.57,0.19 -5.87,-0.36 -6.2,2.06 z m 44.94,9.75 c 2.746,0.318 6.271,-1.276 5.165,-3.082 -1.71,1.04 -4.42,1.08 -5.16,3.08 z m -38.74,5.14 c 2.868,2.628 6.641,-0.75 7.231,-3.595 -3.7,-0.08 -7.8,-0.56 -7.23,3.6 z m 54.24,18.49 c 2.064,0.067 4.014,2.183 5.68,1.027 0.62,-2.96 -4.96,-2.46 -5.68,-1.03 z m 55.26,4.11 c -1.061,-0.682 -5.184,-0.975 -6.197,0 1.04,1.43 5.52,2.63 6.2,0 z m -132.74,13.35 c -0.588,-4.039 -4.176,-5.092 -8.265,-5.649 -0.04,4.65 3.66,5.6 8.26,5.65 z m 1.55,0.51 c 0.685,1.037 3.453,1.55 4.648,0.515 -0.142,-2.601 -0.85,-4.634 -3.1,-5.137 -0.49,1.56 -2.05,2.07 -1.55,4.62 z m 35.64,14.38 c -1.071,-1.688 -4.506,-3.722 -6.714,-2.569 0.82,2.19 4.98,7.53 6.71,2.57 z m -24.28,0.51 c 1.857,0.858 3.685,-0.564 4.132,-2.566 -2.28,-0.04 -4.38,0.1 -4.13,2.57 z m 106.4,9.76 v 3.079 c 0.357,1.014 2.881,-0.126 3.1,1.028 0.201,4.309 -3.492,4.745 -4.133,8.216 -1.229,-4.71 -7.121,-4.05 -12.397,-4.622 -6.802,-0.741 -13.079,-5.665 -19.626,-1.54 0.277,2.28 2.98,5.299 0.518,7.189 0.17,-1.882 -0.575,-2.854 -1.033,-4.11 -2.243,0.007 -3.448,-1.021 -5.166,-1.539 -8.657,3.479 -17.434,-4.434 -26.342,-5.649 1.991,-0.071 4.537,0.402 5.165,-1.027 -6.477,-2.633 -11.454,-6.754 -17.044,-10.27 -2.055,0.842 -3.156,5.57 0,6.162 1.048,-0.328 0.341,-2.4 1.549,-2.567 1.222,3.064 4.033,4.549 7.231,5.65 -3.335,0.277 -2.593,4.608 -5.682,5.133 -1.053,-0.321 -0.145,-2.594 -2.065,-2.054 -1.911,1.009 -2.461,3.373 -3.099,5.649 3.88,2.945 4.853,15.405 -0.517,17.46 -1.004,-0.721 -3.326,-1.676 -4.648,-0.513 0.997,1.934 -0.38,4.624 0,7.704 0.741,6.003 4.715,12.72 5.165,18.487 -3.893,2.935 -7.748,8.959 -3.615,14.379 0.118,-1.766 1.535,-2.237 3.098,-2.567 1.07,1.179 4.228,2.961 3.616,4.107 -2.11,-0.504 -2.088,0.058 -4.648,0 1.395,6.659 8.595,7.546 11.363,12.84 2.31,-2.326 5.826,-3.45 7.748,-6.163 0.637,1.934 1.99,3.157 3.098,4.621 -4.051,-0.433 -2.84,4.367 -5.68,5.137 2.096,1.682 3.656,3.896 3.613,7.704 -1.076,-1.668 -3.775,-1.725 -6.713,-1.542 1.965,7.342 12.56,8.396 16.011,11.297 2,1.684 4.192,8.315 7.23,8.732 4.368,0.6 5.741,-6.615 9.813,-7.191 2.867,-0.401 7.963,3.102 9.814,5.136 4.186,4.603 5.15,12.438 13.945,11.813 0.596,-7.898 10.719,-13.084 10.33,-22.082 -0.158,-3.636 -3.08,-7.412 -3.099,-11.812 -0.021,-4.579 1.581,-9.249 1.032,-13.354 -0.525,-3.943 -3.599,-7.455 -3.101,-11.297 3.587,-0.141 3.493,3.374 6.716,3.594 0.754,-1.135 2.766,-1.016 3.101,-2.567 -5.316,-4.32 0.011,-11.036 -0.519,-17.976 -6.8,-1.11 -4.063,7.257 -8.779,8.217 -1.824,-0.238 -1.895,-2.224 -2.584,-3.593 1.894,0.169 2.87,-0.57 4.134,-1.027 0.765,-6.311 -3.396,-9.638 -1.55,-15.407 5.178,-2.041 9.006,-5.425 11.879,-9.757 -3.99,-14.924 12.766,-9.219 12.912,-20.029 -1.955,-3.245 -8.979,-3.308 -10.846,0 -2.197,-1.41 -4.148,-3.064 -8.264,-2.567 1.886,-2.149 1.164,-7.121 -1.033,-8.217 -1.721,0.171 -2.291,1.488 -4.648,1.027 -2.742,-1.211 -2.379,-5.511 -6.197,-5.648 -1.83,7.52 6.99,8.79 10.85,12.33 z m -110.53,-2.05 c 0.106,-4.391 -3.052,-8.255 -7.229,-6.677 1.84,2.79 3.53,5.74 7.23,6.68 z m 4.65,11.29 c 7.633,0.368 5.963,-12.612 0,-12.838 0.53,4.55 -0.83,9.68 0,12.84 z m 26.34,5.66 c 0.71,-0.66 0.899,-3.071 -0.516,-3.082 0.3,0.9 -0.62,3.01 0.52,3.08 z m 149.79,12.32 c 0.658,-2.876 2.572,-6.296 1.033,-9.757 -3.947,-3.092 -12.201,-1.905 -18.078,-3.081 1.63,8.31 9.69,10.22 17.05,12.84 z m -57.85,-9.76 c -0.316,3.396 1.098,5.071 2.064,7.188 2.518,-1.028 3.896,-4.979 2.584,-8.215 -1.77,-0.9 -3.86,-0.44 -4.64,1.03 z m -159.6,20.55 c 0.535,-2.549 4.137,-2.049 5.164,-4.108 -3.886,-1.429 1.812,-7.188 -2.582,-7.704 -1.39,3.06 -4.13,7.52 -2.58,11.81 z m 150.82,-2.06 c 0.422,-0.372 1.386,-3.555 -0.516,-3.082 0.3,0.9 -0.62,3.02 0.52,3.08 z m 8.26,7.71 c 0.464,-0.91 1.248,-1.501 1.549,-2.569 -1.025,-2.916 -4.01,-3.888 -8.264,-3.596 1.26,3.03 2.5,6.08 6.71,6.17 z m 114.67,0.51 c 1.036,1.023 2.037,2.081 4.131,2.054 -0.186,-3.067 -1.314,-5.196 -2.582,-7.188 -0.99,1.25 -1.93,2.54 -1.55,5.14 z m -247.41,6.16 c 0.124,0.734 0.85,0.865 1.033,1.542 2.869,0.286 3.624,-1.532 3.615,-4.109 -1.99,0.42 -4.6,0.22 -4.65,2.57 z m 141.01,6.68 c 2.193,-5.477 -2.799,-7.675 -7.23,-8.217 0.91,4.22 2.18,8.1 7.23,8.22 z m 40.28,-1.03 c 6.005,3.486 9.412,-6.248 3.1,-6.674 -0.27,2.98 -2.07,4.44 -3.1,6.67 z m -175.09,10.27 c -0.907,-4.233 -0.159,-10.111 -4.131,-11.297 -1.407,2.709 -4.909,3.335 -7.747,4.62 -0.726,1.709 -1.094,5.315 1.549,5.137 0.297,-0.903 -0.624,-3.018 0.517,-3.081 1.351,0.883 3.619,0.852 3.615,3.081 6.492,-1.316 7.83,7.282 3.1,8.729 0.695,-1.549 0.695,-4.097 0,-5.648 -2.952,-0.318 -5.258,-1.277 -8.781,-1.025 -1.214,1.361 -2.41,2.738 -2.583,5.135 2.152,2.054 3.597,1.021 6.715,0.515 6.494,1.93 7.422,9.395 12.912,12.323 -0.62,-7.94 0.63,-15.27 -5.18,-18.5 z m 131.71,-1.54 c 2.421,0.013 5.091,0.271 5.164,-2.055 -0.66,-4 -5.54,-1 -5.16,2.06 z m -195.24,1.54 c -1.097,-3.531 -6.31,-2.97 -10.847,-3.079 -0.06,5.54 7.46,5.12 10.85,3.08 z m 195.24,13.86 c -0.168,-5.486 -3.73,-10.323 -8.781,-9.243 2.36,3.64 2.5,9.5 8.78,9.24 z m 12.91,15.93 c -0.067,-4.726 -4.328,-5.284 -7.23,-7.19 0.27,4.52 2.46,7.14 7.23,7.19 z m -266.51,-1.03 c -0.251,0.786 1.778,3.693 2.065,5.649 0.813,-1.246 1.927,-2.193 1.55,-4.622 -0.71,-0.91 -2.5,-2.07 -3.61,-1.03 z m 81.6,10.78 c -6.01,0.528 -7.804,5.249 -8.264,11.297 6.653,0.324 12.878,2.922 19.627,1.542 0.07,-8.11 -12.55,-3.62 -11.37,-12.84 z m 160.12,5.65 c -0.541,4.373 7.525,3.864 7.748,0.513 -2.39,-0.69 -5.7,-2.41 -7.75,-0.51 z m -43.91,16.95 c -0.869,-5.644 -0.402,-12.624 1.033,-15.405 -9.98,-1.33 -10.03,15.59 -1.03,15.4 z m 10.33,-9.76 c 1.234,-1.484 0.123,-3.925 -1.549,-4.109 0.16,1.73 -0.69,4.46 1.55,4.11 z m 27.9,20.03 c 3.482,-2.508 -0.242,-7.321 -3.097,-8.216 -0.06,3.83 -0.42,7.95 3.1,8.22 z m -4.14,10.27 c -0.802,-2.398 -0.379,-4.67 0,-7.189 -6.82,-1.18 -6.43,8.28 0,7.19 z m -6.71,5.65 c 2.087,0.364 2.948,-0.492 2.581,-2.568 -0.711,0.022 -1.132,-0.242 -1.549,-0.512 -0.46,0.91 -1.44,1.31 -1.03,3.08 z m 54.75,2.57 c 2.06,0.283 1.556,0.283 3.616,0 0.18,-2.62 -3.81,-2.62 -3.62,0 z m -199.89,47.25 c 3.867,0.076 6.166,-1.403 7.231,-4.11 -4.13,-0.35 -7.25,0.32 -7.23,4.11 z"
           inkscape:connector-curvature="0"
           style="fill:#ffffff;fill-opacity:1" />
        <path
           id="path5880"
           d="m 272.2,384.65 c 1.448,1.81 -0.71,4.41 -2.067,5.137 -0.84,-1.21 1.83,-3.3 2.07,-5.14 z"
           inkscape:connector-curvature="0"
           style="fill:#ffffff;fill-opacity:1" />
        <path
           id="path5882"
           d="m 289.76,444.74 c 0.396,-1.66 1.43,-2.688 3.099,-3.082 -2.099,-4.245 -4,-8.69 -7.23,-11.811 5.065,0.273 7.628,7.477 11.88,10.271 -0.753,3.018 -5.201,2.359 -5.165,6.162 -0.096,0.437 0.201,0.485 0.516,0.515 -0.67,0.95 -2.65,-1.11 -3.1,-2.06 z"
           inkscape:connector-curvature="0"
           style="fill:#ffffff;fill-opacity:1" />
        <path
           id="path5884"
           d="m 288.72,467.85 c 0.089,1.453 -0.444,3.522 1.033,3.596 -0.63,1.16 -4.68,-3.48 -1.03,-3.6 z"
           inkscape:connector-curvature="0"
           style="fill:#ffffff;fill-opacity:1" />
        <path
           id="path5886"
           d="m 258.25,478.12 c 1.896,-0.003 1.979,1.797 3.099,2.566 -0.61,0.73 -3.87,-0.23 -3.1,-2.57 z"
           inkscape:connector-curvature="0"
           style="fill:#ffffff;fill-opacity:1" />
        <path
           id="path5888"
           d="m 715.87,211.58 c 1.36,0.155 1.695,-0.711 1.551,-2.054 1.08,0.637 1.941,1.493 2.582,2.567 -3.936,4.476 -1.795,14.992 -6.714,18.487 0.979,0.909 3.306,0.479 4.132,1.541 v 4.622 c -8.11,-0.704 -9.33,5.445 -11.363,10.785 1.555,0.852 3.338,1.474 4.132,3.081 -3.972,0.844 -9.239,0.401 -11.362,3.082 4.24,10.842 -7.389,12.266 -5.682,20.542 1.902,-2.56 4.279,-4.646 8.779,-4.622 -2.42,5.468 -10.688,5.122 -12.913,10.784 0.612,0.933 2.694,0.404 3.616,1.027 1.117,2.769 0.33,6.849 -2.582,7.191 -0.773,-2.484 -0.916,-5.594 -3.615,-6.163 -0.6,3.708 -5.381,5.333 -3.1,10.271 -2.473,-0.233 -3.916,0.557 -4.648,2.054 -0.119,3.371 2.266,4.252 3.1,6.676 -4.008,2.136 3.906,7.361 0,11.298 -2.027,-0.552 -3.463,-1.693 -5.166,-2.568 -0.291,-4.018 1.467,-5.88 0.518,-9.245 -2.127,0.023 -3.538,2.943 -1.551,4.109 -4.664,4.263 -2.529,15.287 -6.197,20.542 -4.748,2.127 -7.737,6 -9.297,11.299 2.467,-0.293 6.668,-3.295 8.264,-6.163 0.871,4.809 -5.006,7.345 -7.746,10.271 -1.543,-0.008 -1.758,-1.335 -3.1,-1.541 -2.229,0.877 -2.563,5.169 -1.551,7.704 -2.124,1.483 -3.213,3.994 -5.682,5.136 0.186,7.886 -2.873,12.548 -7.229,15.919 -0.551,-2.441 2.75,-5.473 2.583,-9.244 -4.972,-2.023 -5.555,4.744 -9.814,5.137 0.961,3.322 1.24,7.325 1.033,11.811 -1.336,-1.238 -2.295,-2.854 -3.1,-4.621 -1.068,3.668 -6.965,8.62 -3.615,11.811 -0.439,1.507 -1.3,-0.668 -2.582,0 -3.477,0.823 -3.045,5.533 -7.748,5.137 -3.564,6.212 -6.514,13.039 -13.945,15.406 -1.635,10.582 -13.843,6.279 -15.494,-2.055 -1.584,-7.992 6.219,-13.973 6.713,-19.516 -1.615,-2.458 -7.277,-7.553 -1.549,-9.756 -0.156,2.381 0.004,4.444 1.033,5.648 1.998,0.447 1.838,-1.254 3.1,-1.542 -0.074,-1.98 0.402,-4.509 -1.033,-5.134 0.881,-0.494 1.131,-1.614 1.549,-2.567 -0.475,-10.744 5.431,-15.143 7.23,-23.625 1.861,-3.782 14.615,-4.834 15.496,-9.243 0.123,-0.62 -1.994,-2.964 -2.066,-3.595 -0.51,-4.467 4.371,-6.258 5.164,-11.298 6.139,0.199 4.953,-3.673 5.682,-9.244 0.754,-5.757 11,-17.582 16.012,-20.543 1.886,-1.113 4.793,-1.451 6.715,-1.541 0.313,-2.021 -0.762,-2.667 -1.549,-3.595 0.715,-1.171 3.594,-0.191 5.164,-0.514 1.375,-4.978 -2.065,-10.947 2.066,-13.866 -3.957,-1.267 1.131,-8.347 -4.648,-7.703 0.709,-1.692 2.732,-2.076 4.648,-2.568 1.078,-0.776 -1.982,-1.76 -1.551,-3.595 0.229,-2.854 2.115,-4.059 3.1,-6.163 -1.453,-11.374 3.803,-16.077 5.682,-24.137 2.234,-1.032 5.58,-0.958 7.232,-2.568 0.015,-1.726 -0.713,-2.716 -1.552,-3.595 1.233,-3.91 3.804,-6.491 7.234,-8.216 0.544,-2.81 -1.448,-5.114 0,-7.19 0.909,1.492 1.001,3.796 2.581,4.622 6.97,-8.43 27.09,-7.69 33.09,1.01 z"
           inkscape:connector-curvature="0"
           style="fill:#ffffff;fill-opacity:1" />
      </g>
      <text
         xml:space="preserve"
         style="font-size:2.3064642px;font-style:normal;font-weight:normal;line-height:125%;letter-spacing:0px;word-spacing:0px;fill:#e6e6e6;fill-opacity:1;stroke:none;font-family:Sans"
         x="777.41388"
         y="736.83698"
         id="text4552-4-3-4-5-5"
         sodipodi:linespacing="125%"
         inkscape:export-filename="/home/samuel/Documents/Associations/Gull/2015-Alternatiba/Affiches/AfficheTableauNoir.png"
         inkscape:export-xdpi="144.39999"
         inkscape:export-ydpi="144.39999"
         transform="scale(1.1296841,0.88520322)"><tspan
           sodipodi:role="line"
           x="777.41388"
           y="736.83698"
           style="font-size:15.37642765px;font-style:normal;font-variant:normal;font-weight:bold;font-stretch:normal;fill:#ffbf00;fill-opacity:1;font-family:Purisa;-inkscape-font-specification:Purisa Bold"
           id="tspan4581-2-2-9-8">Et mon informatique ?</tspan></text>
      <rect
         style="fill:#000000;fill-opacity:1;stroke:#e6e6e6;stroke-width:1.90806067;stroke-miterlimit:4;stroke-opacity:1;stroke-dasharray:none"
         id="rect5469-9-1"
         width="16.453291"
         height="10.88704"
         x="845.78412"
         y="641.28174"
         inkscape:export-filename="/home/samuel/Documents/Associations/Gull/2015-Alternatiba/Affiches/AfficheTableauNoir.png"
         inkscape:export-xdpi="144.39999"
         inkscape:export-ydpi="144.39999" />
    </g>
  </g>
</svg>
